<?plantuml 1.2026.2beta3?><svg xmlns="http://www.w3.org/2000/svg" xmlns:xlink="http://www.w3.org/1999/xlink" contentStyleType="text/css" data-diagram-type="CLASS" height="640px" preserveAspectRatio="none" style="width:945px;height:640px;background:#FFFFFF;" version="1.1" viewBox="0 0 945 640" width="945px" zoomAndPan="magnify"><defs/><g><!--class Product--><g class="entity" data-qualified-name="Product" data-source-line="9" id="ent0002"><rect fill="#F1F1F1" height="178.375" rx="2.5" ry="2.5" style="stroke:#181818;stroke-width:0.5;" width="143.6465" x="597.14" y="141.41"/><ellipse cx="638.2114" cy="157.41" fill="#ADD1B2" rx="11" ry="11" style="stroke:#181818;stroke-width:1;"/><path d="M641.1802,163.0506 Q640.6021,163.3475 639.9614,163.4881 Q639.3208,163.6444 638.6177,163.6444 Q636.1177,163.6444 634.7896,162.0038 Q633.4771,160.3475 633.4771,157.2225 Q633.4771,154.0975 634.7896,152.4413 Q636.1177,150.785 638.6177,150.785 Q639.3208,150.785 639.9614,150.9413 Q640.6177,151.0975 641.1802,151.3944 L641.1802,154.1131 Q640.5552,153.535 639.9614,153.2694 Q639.3677,152.9881 638.7427,152.9881 Q637.3989,152.9881 636.7114,154.0663 Q636.0239,155.1288 636.0239,157.2225 Q636.0239,159.3163 636.7114,160.3944 Q637.3989,161.4569 638.7427,161.4569 Q639.3677,161.4569 639.9614,161.1913 Q640.5552,160.91 641.1802,160.3319 L641.1802,163.0506 Z " fill="#000000"/><text fill="#000000" font-family="sans-serif" font-size="14" lengthAdjust="spacing" textLength="53.71" x="658.0051" y="162.2567">Product</text><line style="stroke:#181818;stroke-width:0.5;" x1="598.14" x2="739.7865" y1="173.41" y2="173.41"/><text fill="#000000" font-family="sans-serif" font-size="14" lengthAdjust="spacing" textLength="61.0586" x="603.14" y="190.4051">long :  id</text><text fill="#000000" font-family="sans-serif" font-size="14" lengthAdjust="spacing" textLength="93.5088" x="603.14" y="206.702">string : name</text><text fill="#000000" font-family="sans-serif" font-size="14" lengthAdjust="spacing" textLength="131.6465" x="603.14" y="222.9989">string : description</text><text fill="#000000" font-family="sans-serif" font-size="14" lengthAdjust="spacing" textLength="96.1748" x="603.14" y="239.2957">double : price</text><text fill="#000000" font-family="sans-serif" font-size="14" lengthAdjust="spacing" textLength="78.0801" x="603.14" y="255.5926">string : sku</text><text fill="#000000" font-family="sans-serif" font-size="14" lengthAdjust="spacing" textLength="97.4121" x="603.14" y="271.8895">string : image</text><text fill="#000000" font-family="sans-serif" font-size="14" lengthAdjust="spacing" textLength="129.5205" x="603.14" y="288.1864">bigDecimal : stock</text><text fill="#000000" font-family="sans-serif" font-size="14" lengthAdjust="spacing" textLength="118.3369" x="603.14" y="304.4832">date :  createdAt</text><line style="stroke:#181818;stroke-width:0.5;" x1="598.14" x2="739.7865" y1="311.785" y2="311.785"/></g><!--class Category--><g class="entity" data-qualified-name="Category" data-source-line="20" id="ent0003"><rect fill="#F1F1F1" height="113.1875" rx="2.5" ry="2.5" style="stroke:#181818;stroke-width:0.5;" width="143.6465" x="388.81" y="224"/><ellipse cx="425.2733" cy="240" fill="#ADD1B2" rx="11" ry="11" style="stroke:#181818;stroke-width:1;"/><path d="M428.2421,245.6406 Q427.664,245.9375 427.0233,246.0781 Q426.3827,246.2344 425.6796,246.2344 Q423.1796,246.2344 421.8515,244.5938 Q420.539,242.9375 420.539,239.8125 Q420.539,236.6875 421.8515,235.0313 Q423.1796,233.375 425.6796,233.375 Q426.3827,233.375 427.0233,233.5313 Q427.6796,233.6875 428.2421,233.9844 L428.2421,236.7031 Q427.6171,236.125 427.0233,235.8594 Q426.4296,235.5781 425.8046,235.5781 Q424.4608,235.5781 423.7733,236.6563 Q423.0858,237.7188 423.0858,239.8125 Q423.0858,241.9063 423.7733,242.9844 Q424.4608,244.0469 425.8046,244.0469 Q426.4296,244.0469 427.0233,243.7813 Q427.6171,243.5 428.2421,242.9219 L428.2421,245.6406 Z " fill="#000000"/><text fill="#000000" font-family="sans-serif" font-size="14" lengthAdjust="spacing" textLength="63.9502" x="444.043" y="244.8467">Category</text><line style="stroke:#181818;stroke-width:0.5;" x1="389.81" x2="531.4565" y1="256" y2="256"/><text fill="#000000" font-family="sans-serif" font-size="14" lengthAdjust="spacing" textLength="56.6084" x="394.81" y="272.9951">long : id</text><text fill="#000000" font-family="sans-serif" font-size="14" lengthAdjust="spacing" textLength="93.5088" x="394.81" y="289.292">string : name</text><text fill="#000000" font-family="sans-serif" font-size="14" lengthAdjust="spacing" textLength="131.6465" x="394.81" y="305.5889">string : description</text><text fill="#000000" font-family="sans-serif" font-size="14" lengthAdjust="spacing" textLength="97.4121" x="394.81" y="321.8857">string : image</text><line style="stroke:#181818;stroke-width:0.5;" x1="389.81" x2="531.4565" y1="329.1875" y2="329.1875"/></g><!--class User--><g class="entity" data-qualified-name="User" data-source-line="27" id="ent0004"><rect fill="#F1F1F1" height="113.1875" rx="2.5" ry="2.5" style="stroke:#181818;stroke-width:0.5;" width="132.5176" x="7" y="178"/><ellipse cx="53.0537" cy="194" fill="#ADD1B2" rx="11" ry="11" style="stroke:#181818;stroke-width:1;"/><path d="M56.0225,199.6406 Q55.4443,199.9375 54.8037,200.0781 Q54.1631,200.2344 53.46,200.2344 Q50.96,200.2344 49.6318,198.5938 Q48.3193,196.9375 48.3193,193.8125 Q48.3193,190.6875 49.6318,189.0313 Q50.96,187.375 53.46,187.375 Q54.1631,187.375 54.8037,187.5313 Q55.46,187.6875 56.0225,187.9844 L56.0225,190.7031 Q55.3975,190.125 54.8037,189.8594 Q54.21,189.5781 53.585,189.5781 Q52.2412,189.5781 51.5537,190.6563 Q50.8662,191.7188 50.8662,193.8125 Q50.8662,195.9063 51.5537,196.9844 Q52.2412,198.0469 53.585,198.0469 Q54.21,198.0469 54.8037,197.7813 Q55.3975,197.5 56.0225,196.9219 L56.0225,199.6406 Z " fill="#000000"/><text fill="#000000" font-family="sans-serif" font-size="14" lengthAdjust="spacing" textLength="31.9102" x="73.5537" y="198.8467">User</text><line style="stroke:#181818;stroke-width:0.5;" x1="8" x2="138.5176" y1="210" y2="210"/><text fill="#000000" font-family="sans-serif" font-size="14" lengthAdjust="spacing" textLength="56.6084" x="13" y="226.9951">long : id</text><text fill="#000000" font-family="sans-serif" font-size="14" lengthAdjust="spacing" textLength="92.415" x="13" y="243.292">string : email</text><text fill="#000000" font-family="sans-serif" font-size="14" lengthAdjust="spacing" textLength="120.5176" x="13" y="259.5889">string : password</text><text fill="#000000" font-family="sans-serif" font-size="14" lengthAdjust="spacing" textLength="117.0449" x="13" y="275.8857">boolean : enable</text><line style="stroke:#181818;stroke-width:0.5;" x1="8" x2="138.5176" y1="283.1875" y2="283.1875"/></g><!--class Role--><g class="entity" data-qualified-name="Role" data-source-line="34" id="ent0005"><rect fill="#F1F1F1" height="80.5938" rx="2.5" ry="2.5" style="stroke:#181818;stroke-width:0.5;" width="105.5088" x="209.07" y="241.3"/><ellipse cx="243.2908" cy="257.3" fill="#ADD1B2" rx="11" ry="11" style="stroke:#181818;stroke-width:1;"/><path d="M246.2596,262.9406 Q245.6814,263.2375 245.0408,263.3781 Q244.4002,263.5344 243.6971,263.5344 Q241.1971,263.5344 239.8689,261.8938 Q238.5564,260.2375 238.5564,257.1125 Q238.5564,253.9875 239.8689,252.3313 Q241.1971,250.675 243.6971,250.675 Q244.4002,250.675 245.0408,250.8313 Q245.6971,250.9875 246.2596,251.2844 L246.2596,254.0031 Q245.6346,253.425 245.0408,253.1594 Q244.4471,252.8781 243.8221,252.8781 Q242.4783,252.8781 241.7908,253.9563 Q241.1033,255.0188 241.1033,257.1125 Q241.1033,259.2063 241.7908,260.2844 Q242.4783,261.3469 243.8221,261.3469 Q244.4471,261.3469 245.0408,261.0813 Q245.6346,260.8 246.2596,260.2219 L246.2596,262.9406 Z " fill="#000000"/><text fill="#000000" font-family="sans-serif" font-size="14" lengthAdjust="spacing" textLength="30.7959" x="261.5621" y="262.1467">Role</text><line style="stroke:#181818;stroke-width:0.5;" x1="210.07" x2="313.5788" y1="273.3" y2="273.3"/><text fill="#000000" font-family="sans-serif" font-size="14" lengthAdjust="spacing" textLength="56.6084" x="215.07" y="290.2951">long : id</text><text fill="#000000" font-family="sans-serif" font-size="14" lengthAdjust="spacing" textLength="93.5088" x="215.07" y="306.592">string : name</text><line style="stroke:#181818;stroke-width:0.5;" x1="210.07" x2="313.5788" y1="313.8938" y2="313.8938"/></g><!--class Order--><g class="entity" data-qualified-name="Order" data-source-line="39" id="ent0006"><rect fill="#F1F1F1" height="113.1875" rx="2.5" ry="2.5" style="stroke:#181818;stroke-width:0.5;" width="124.6084" x="199.52" y="93"/><ellipse cx="238.1797" cy="109" fill="#ADD1B2" rx="11" ry="11" style="stroke:#181818;stroke-width:1;"/><path d="M241.1485,114.6406 Q240.5703,114.9375 239.9297,115.0781 Q239.2891,115.2344 238.586,115.2344 Q236.086,115.2344 234.7578,113.5938 Q233.4453,111.9375 233.4453,108.8125 Q233.4453,105.6875 234.7578,104.0313 Q236.086,102.375 238.586,102.375 Q239.2891,102.375 239.9297,102.5313 Q240.586,102.6875 241.1485,102.9844 L241.1485,105.7031 Q240.5235,105.125 239.9297,104.8594 Q239.336,104.5781 238.711,104.5781 Q237.3672,104.5781 236.6797,105.6563 Q235.9922,106.7188 235.9922,108.8125 Q235.9922,110.9063 236.6797,111.9844 Q237.3672,113.0469 238.711,113.0469 Q239.336,113.0469 239.9297,112.7813 Q240.5235,112.5 241.1485,111.9219 L241.1485,114.6406 Z " fill="#000000"/><text fill="#000000" font-family="sans-serif" font-size="14" lengthAdjust="spacing" textLength="40.0313" x="257.4374" y="113.8467">Order</text><line style="stroke:#181818;stroke-width:0.5;" x1="200.52" x2="323.1284" y1="125" y2="125"/><text fill="#000000" font-family="sans-serif" font-size="14" lengthAdjust="spacing" textLength="56.6084" x="205.52" y="141.9951">long : id</text><text fill="#000000" font-family="sans-serif" font-size="14" lengthAdjust="spacing" textLength="110.4688" x="205.52" y="158.292">date : oderDate</text><text fill="#000000" font-family="sans-serif" font-size="14" lengthAdjust="spacing" textLength="112.6084" x="205.52" y="174.5889">boolean : status</text><text fill="#000000" font-family="sans-serif" font-size="14" lengthAdjust="spacing" textLength="93.3447" x="205.52" y="190.8857">double : total</text><line style="stroke:#181818;stroke-width:0.5;" x1="200.52" x2="323.1284" y1="198.1875" y2="198.1875"/></g><!--class OrderItem--><g class="entity" data-qualified-name="OrderItem" data-source-line="46" id="ent0007"><rect fill="#F1F1F1" height="96.8906" rx="2.5" ry="2.5" style="stroke:#181818;stroke-width:0.5;" width="134.1035" x="393.58" y="92.15"/><ellipse cx="422.1714" cy="108.15" fill="#ADD1B2" rx="11" ry="11" style="stroke:#181818;stroke-width:1;"/><path d="M425.1402,113.7906 Q424.562,114.0875 423.9214,114.2281 Q423.2808,114.3844 422.5777,114.3844 Q420.0777,114.3844 418.7495,112.7437 Q417.437,111.0875 417.437,107.9625 Q417.437,104.8375 418.7495,103.1812 Q420.0777,101.525 422.5777,101.525 Q423.2808,101.525 423.9214,101.6812 Q424.5777,101.8375 425.1402,102.1344 L425.1402,104.8531 Q424.5152,104.275 423.9214,104.0094 Q423.3277,103.7281 422.7027,103.7281 Q421.3589,103.7281 420.6714,104.8062 Q419.9839,105.8687 419.9839,107.9625 Q419.9839,110.0562 420.6714,111.1344 Q421.3589,112.1969 422.7027,112.1969 Q423.3277,112.1969 423.9214,111.9312 Q424.5152,111.65 425.1402,111.0719 L425.1402,113.7906 Z " fill="#000000"/><text fill="#000000" font-family="sans-serif" font-size="14" lengthAdjust="spacing" textLength="71.9004" x="439.1917" y="112.9967">OrderItem</text><line style="stroke:#181818;stroke-width:0.5;" x1="394.58" x2="526.6835" y1="124.15" y2="124.15"/><text fill="#000000" font-family="sans-serif" font-size="14" lengthAdjust="spacing" textLength="56.6084" x="399.58" y="141.1451">long : id</text><text fill="#000000" font-family="sans-serif" font-size="14" lengthAdjust="spacing" textLength="122.1035" x="399.58" y="157.442">integer : quantity</text><text fill="#000000" font-family="sans-serif" font-size="14" lengthAdjust="spacing" textLength="96.1748" x="399.58" y="173.7389">double : price</text><line style="stroke:#181818;stroke-width:0.5;" x1="394.58" x2="526.6835" y1="181.0406" y2="181.0406"/></g><!--class Store--><g class="entity" data-qualified-name="Store" data-source-line="52" id="ent0008"><rect fill="#F1F1F1" height="113.1875" rx="2.5" ry="2.5" style="stroke:#181818;stroke-width:0.5;" width="121.1152" x="12.7" y="7"/><ellipse cx="51.0121" cy="23" fill="#ADD1B2" rx="11" ry="11" style="stroke:#181818;stroke-width:1;"/><path d="M53.9809,28.6406 Q53.4027,28.9375 52.7621,29.0781 Q52.1215,29.2344 51.4184,29.2344 Q48.9184,29.2344 47.5902,27.5938 Q46.2777,25.9375 46.2777,22.8125 Q46.2777,19.6875 47.5902,18.0313 Q48.9184,16.375 51.4184,16.375 Q52.1215,16.375 52.7621,16.5313 Q53.4184,16.6875 53.9809,16.9844 L53.9809,19.7031 Q53.3559,19.125 52.7621,18.8594 Q52.1684,18.5781 51.5434,18.5781 Q50.1996,18.5781 49.5121,19.6563 Q48.8246,20.7188 48.8246,22.8125 Q48.8246,24.9063 49.5121,25.9844 Q50.1996,27.0469 51.5434,27.0469 Q52.1684,27.0469 52.7621,26.7813 Q53.3559,26.5 53.9809,25.9219 L53.9809,28.6406 Z " fill="#000000"/><text fill="#000000" font-family="sans-serif" font-size="14" lengthAdjust="spacing" textLength="37.3105" x="70.1926" y="27.8467">Store</text><line style="stroke:#181818;stroke-width:0.5;" x1="13.7" x2="132.8152" y1="39" y2="39"/><text fill="#000000" font-family="sans-serif" font-size="14" lengthAdjust="spacing" textLength="56.6084" x="18.7" y="55.9951">long : id</text><text fill="#000000" font-family="sans-serif" font-size="14" lengthAdjust="spacing" textLength="93.5088" x="18.7" y="72.292">string : name</text><text fill="#000000" font-family="sans-serif" font-size="14" lengthAdjust="spacing" textLength="109.1152" x="18.7" y="88.5889">string : address</text><text fill="#000000" font-family="sans-serif" font-size="14" lengthAdjust="spacing" textLength="97.6172" x="18.7" y="104.8857">string : phone</text><line style="stroke:#181818;stroke-width:0.5;" x1="13.7" x2="132.8152" y1="112.1875" y2="112.1875"/></g><!--class Payment--><g class="entity" data-qualified-name="Payment" data-source-line="59" id="ent0009"><rect fill="#F1F1F1" height="129.4844" rx="2.5" ry="2.5" style="stroke:#181818;stroke-width:0.5;" width="153.0117" x="384.13" y="503.86"/><ellipse cx="425.7213" cy="519.86" fill="#ADD1B2" rx="11" ry="11" style="stroke:#181818;stroke-width:1;"/><path d="M428.6901,525.5006 Q428.1119,525.7975 427.4713,525.9381 Q426.8307,526.0944 426.1276,526.0944 Q423.6276,526.0944 422.2994,524.4538 Q420.9869,522.7975 420.9869,519.6725 Q420.9869,516.5475 422.2994,514.8913 Q423.6276,513.235 426.1276,513.235 Q426.8307,513.235 427.4713,513.3913 Q428.1276,513.5475 428.6901,513.8444 L428.6901,516.5631 Q428.0651,515.985 427.4713,515.7194 Q426.8776,515.4381 426.2526,515.4381 Q424.9088,515.4381 424.2213,516.5163 Q423.5338,517.5788 423.5338,519.6725 Q423.5338,521.7663 424.2213,522.8444 Q424.9088,523.9069 426.2526,523.9069 Q426.8776,523.9069 427.4713,523.6413 Q428.0651,523.36 428.6901,522.7819 L428.6901,525.5006 Z " fill="#000000"/><text fill="#000000" font-family="sans-serif" font-size="14" lengthAdjust="spacing" textLength="61.9199" x="445.6305" y="524.7067">Payment</text><line style="stroke:#181818;stroke-width:0.5;" x1="385.13" x2="536.1417" y1="535.86" y2="535.86"/><text fill="#000000" font-family="sans-serif" font-size="14" lengthAdjust="spacing" textLength="56.6084" x="390.13" y="552.8551">long : id</text><text fill="#000000" font-family="sans-serif" font-size="14" lengthAdjust="spacing" textLength="107.8711" x="390.13" y="569.152">string : method</text><text fill="#000000" font-family="sans-serif" font-size="14" lengthAdjust="spacing" textLength="115.3496" x="390.13" y="585.4489">double : amount</text><text fill="#000000" font-family="sans-serif" font-size="14" lengthAdjust="spacing" textLength="112.6084" x="390.13" y="601.7457">boolean : status</text><text fill="#000000" font-family="sans-serif" font-size="14" lengthAdjust="spacing" textLength="141.0117" x="390.13" y="618.0426">date : paymentDate</text><line style="stroke:#181818;stroke-width:0.5;" x1="385.13" x2="536.1417" y1="625.3444" y2="625.3444"/></g><!--class Supplier--><g class="entity" data-qualified-name="Supplier" data-source-line="67" id="ent0010"><rect fill="#F1F1F1" height="96.8906" rx="2.5" ry="2.5" style="stroke:#181818;stroke-width:0.5;" width="144.6924" x="388.29" y="372.15"/><ellipse cx="428.0448" cy="388.15" fill="#ADD1B2" rx="11" ry="11" style="stroke:#181818;stroke-width:1;"/><path d="M431.0136,393.7906 Q430.4355,394.0875 429.7948,394.2281 Q429.1542,394.3844 428.4511,394.3844 Q425.9511,394.3844 424.623,392.7438 Q423.3105,391.0875 423.3105,387.9625 Q423.3105,384.8375 424.623,383.1813 Q425.9511,381.525 428.4511,381.525 Q429.1542,381.525 429.7948,381.6813 Q430.4511,381.8375 431.0136,382.1344 L431.0136,384.8531 Q430.3886,384.275 429.7948,384.0094 Q429.2011,383.7281 428.5761,383.7281 Q427.2323,383.7281 426.5448,384.8063 Q425.8573,385.8688 425.8573,387.9625 Q425.8573,390.0563 426.5448,391.1344 Q427.2323,392.1969 428.5761,392.1969 Q429.2011,392.1969 429.7948,391.9313 Q430.3886,391.65 431.0136,391.0719 L431.0136,393.7906 Z " fill="#000000"/><text fill="#000000" font-family="sans-serif" font-size="14" lengthAdjust="spacing" textLength="57.6816" x="447.5459" y="392.9967">Supplier</text><line style="stroke:#181818;stroke-width:0.5;" x1="389.29" x2="531.9824" y1="404.15" y2="404.15"/><text fill="#000000" font-family="sans-serif" font-size="14" lengthAdjust="spacing" textLength="56.6084" x="394.29" y="421.1451">long : id</text><text fill="#000000" font-family="sans-serif" font-size="14" lengthAdjust="spacing" textLength="93.5088" x="394.29" y="437.442">string : name</text><text fill="#000000" font-family="sans-serif" font-size="14" lengthAdjust="spacing" textLength="132.6924" x="394.29" y="453.7389">string : contactInfo</text><line style="stroke:#181818;stroke-width:0.5;" x1="389.29" x2="531.9824" y1="461.0406" y2="461.0406"/></g><!--class Inventory--><g class="entity" data-qualified-name="Inventory" data-source-line="73" id="ent0011"><rect fill="#F1F1F1" height="113.1875" rx="2.5" ry="2.5" style="stroke:#181818;stroke-width:0.5;" width="137.5557" x="800.78" y="103"/><ellipse cx="833.1889" cy="119" fill="#ADD1B2" rx="11" ry="11" style="stroke:#181818;stroke-width:1;"/><path d="M836.1577,124.6406 Q835.5796,124.9375 834.9389,125.0781 Q834.2983,125.2344 833.5952,125.2344 Q831.0952,125.2344 829.7671,123.5938 Q828.4546,121.9375 828.4546,118.8125 Q828.4546,115.6875 829.7671,114.0313 Q831.0952,112.375 833.5952,112.375 Q834.2983,112.375 834.9389,112.5313 Q835.5952,112.6875 836.1577,112.9844 L836.1577,115.7031 Q835.5327,115.125 834.9389,114.8594 Q834.3452,114.5781 833.7202,114.5781 Q832.3764,114.5781 831.6889,115.6563 Q831.0014,116.7188 831.0014,118.8125 Q831.0014,120.9063 831.6889,121.9844 Q832.3764,123.0469 833.7202,123.0469 Q834.3452,123.0469 834.9389,122.7813 Q835.5327,122.5 836.1577,121.9219 L836.1577,124.6406 Z " fill="#000000"/><text fill="#000000" font-family="sans-serif" font-size="14" lengthAdjust="spacing" textLength="66.8691" x="851.0576" y="123.8467">Inventory</text><line style="stroke:#181818;stroke-width:0.5;" x1="801.78" x2="937.3357" y1="135" y2="135"/><text fill="#000000" font-family="sans-serif" font-size="14" lengthAdjust="spacing" textLength="56.6084" x="806.78" y="151.9951">long : id</text><text fill="#000000" font-family="sans-serif" font-size="14" lengthAdjust="spacing" textLength="118.043" x="806.78" y="168.292">integer : onHand</text><text fill="#000000" font-family="sans-serif" font-size="14" lengthAdjust="spacing" textLength="125.5557" x="806.78" y="184.5889">integer : reserved</text><text fill="#000000" font-family="sans-serif" font-size="14" lengthAdjust="spacing" textLength="118.4668" x="806.78" y="200.8857">date : updatedAt</text><line style="stroke:#181818;stroke-width:0.5;" x1="801.78" x2="937.3357" y1="208.1875" y2="208.1875"/></g><!--link Category to Product--><g class="link" data-entity-1="ent0003" data-entity-2="ent0002" data-link-type="association" data-source-line="85" id="lnk12"><path codeLine="85" d="M532.91,271.89 C553.59,271.89 576.13,271.89 596.81,271.89" fill="none" id="Category-Product" style="stroke:#181818;stroke-width:1;"/><text fill="#000000" font-family="sans-serif" font-size="13" lengthAdjust="spacing" textLength="23.0356" x="540.373" y="283.8556">0..*</text><text fill="#000000" font-family="sans-serif" font-size="13" lengthAdjust="spacing" textLength="23.0356" x="566.0999" y="288.4611">0..*</text></g><!--link User to Role--><g class="link" data-entity-1="ent0004" data-entity-2="ent0005" data-link-type="association" data-source-line="88" id="lnk13"><path codeLine="88" d="M140,266.25 C162.57,266.25 187.44,266.25 208.8,266.25" fill="none" id="User-Role" style="stroke:#181818;stroke-width:1;"/><text fill="#000000" font-family="sans-serif" font-size="13" lengthAdjust="spacing" textLength="23.0356" x="147.4591" y="282.0553">0..*</text><text fill="#000000" font-family="sans-serif" font-size="13" lengthAdjust="spacing" textLength="23.0356" x="177.9383" y="277.3686">0..*</text></g><!--link User to Order--><g class="link" data-entity-1="ent0004" data-entity-2="ent0006" data-link-type="association" data-source-line="91" id="lnk14"><path codeLine="91" d="M140,192.1 C159.29,192.1 180.25,192.1 199.27,192.1" fill="none" id="User-Order" style="stroke:#181818;stroke-width:1;"/><text fill="#000000" font-family="sans-serif" font-size="13" lengthAdjust="spacing" textLength="8.271" x="147.3092" y="200.565">1</text><text fill="#000000" font-family="sans-serif" font-size="13" lengthAdjust="spacing" textLength="23.0356" x="168.635" y="209.3306">0..*</text></g><!--link Store to Order--><g class="link" data-entity-1="ent0008" data-entity-2="ent0006" data-link-type="association" data-source-line="94" id="lnk15"><path codeLine="94" d="M134.22,106.6 C154.99,106.6 178.23,106.6 199.13,106.6" fill="none" id="Store-Order" style="stroke:#181818;stroke-width:1;"/><text fill="#000000" font-family="sans-serif" font-size="13" lengthAdjust="spacing" textLength="8.271" x="141.7469" y="124.5144">1</text><text fill="#000000" font-family="sans-serif" font-size="13" lengthAdjust="spacing" textLength="23.0356" x="168.4806" y="115.0134">0..*</text></g><!--reverse link Order to OrderItem--><g class="link" data-entity-1="ent0006" data-entity-2="ent0007" data-link-type="composition" data-source-line="97" id="lnk16"><path codeLine="97" d="M336.45,141.02 C358.31,141.02 370.92,141.02 393.15,141.02" fill="none" id="Order-backto-OrderItem" style="stroke:#181818;stroke-width:1;"/><polygon fill="#181818" points="324.45,141.02,330.45,145.02,336.45,141.02,330.45,137.02,324.45,141.02" style="stroke:#181818;stroke-width:1;"/><text fill="#000000" font-family="sans-serif" font-size="13" lengthAdjust="spacing" textLength="8.271" x="332.1693" y="152.9704">1</text><text fill="#000000" font-family="sans-serif" font-size="13" lengthAdjust="spacing" textLength="23.0356" x="362.6237" y="153.8485">1..*</text></g><!--link OrderItem to Product--><g class="link" data-entity-1="ent0007" data-entity-2="ent0002" data-link-type="association" data-source-line="100" id="lnk17"><path codeLine="100" d="M527.98,165.23 C549.98,165.23 574.48,165.23 596.81,165.23" fill="none" id="OrderItem-Product" style="stroke:#181818;stroke-width:1;"/><text fill="#000000" font-family="sans-serif" font-size="13" lengthAdjust="spacing" textLength="23.0356" x="535.7434" y="180.4667">0..*</text><text fill="#000000" font-family="sans-serif" font-size="13" lengthAdjust="spacing" textLength="8.271" x="580.9707" y="171.3362">1</text></g><!--link Order to Payment--><g class="link" data-entity-1="ent0006" data-entity-2="ent0009" data-link-type="association" data-source-line="103" id="lnk18"><path codeLine="103" d="M320.34,206.54 C320.34,321.1 320.34,568.6 320.34,568.6 C320.34,568.6 351.17,568.6 383.92,568.6" fill="none" id="Order-Payment" style="stroke:#181818;stroke-width:1;"/><text fill="#000000" font-family="sans-serif" font-size="13" lengthAdjust="spacing" textLength="8.271" x="318.6591" y="226.0662">1</text><text fill="#000000" font-family="sans-serif" font-size="13" lengthAdjust="spacing" textLength="24.8066" x="351.2267" y="581.4115">0..1</text></g><!--link Supplier to Product--><g class="link" data-entity-1="ent0010" data-entity-2="ent0002" data-link-type="association" data-source-line="106" id="lnk19"><path codeLine="106" d="M533.33,420.6 C593.57,420.6 669.34,420.6 669.34,420.6 C669.34,420.6 669.34,369.31 669.34,320.03" fill="none" id="Supplier-Product" style="stroke:#181818;stroke-width:1;"/><text fill="#000000" font-family="sans-serif" font-size="13" lengthAdjust="spacing" textLength="23.0356" x="541.0933" y="433.3649">0..*</text><text fill="#000000" font-family="sans-serif" font-size="13" lengthAdjust="spacing" textLength="23.0356" x="645.455" y="339.8265">0..*</text></g><!--link Store to Inventory--><g class="link" data-entity-1="ent0008" data-entity-2="ent0011" data-link-type="association" data-source-line="115" id="lnk20"><path codeLine="115" d="M134.15,49.58 C320.48,49.58 870.34,49.58 870.34,49.58 C870.34,49.58 870.34,75.81 870.34,102.65" fill="none" id="Store-Inventory" style="stroke:#181818;stroke-width:1;"/><text fill="#000000" font-family="sans-serif" font-size="13" lengthAdjust="spacing" textLength="8.271" x="141.6688" y="60.9014">1</text><text fill="#000000" font-family="sans-serif" font-size="13" lengthAdjust="spacing" textLength="23.0356" x="846.0359" y="91.8709">0..*</text></g><!--link Product to Inventory--><g class="link" data-entity-1="ent0002" data-entity-2="ent0011" data-link-type="association" data-source-line="116" id="lnk21"><path codeLine="116" d="M741.1,178.8 C760.42,178.8 781.26,178.8 800.41,178.8" fill="none" id="Product-Inventory" style="stroke:#181818;stroke-width:1;"/><text fill="#000000" font-family="sans-serif" font-size="13" lengthAdjust="spacing" textLength="8.271" x="748.9656" y="186.3056">1</text><text fill="#000000" font-family="sans-serif" font-size="13" lengthAdjust="spacing" textLength="23.0356" x="769.725" y="193.4187">0..*</text></g><?plantuml-src fLLBRjim4Dth58DiOWLHK6_Jfa2QkAY1raxj9a1N1KqoDc6ALCbH0gFeaRBg4NAn3lMt7GlzU6EIRzxZS7uwXej__aN7yEdk1XAO8-Fhzze-XZLVoLGIz1-wn4wI10RJZ2jhc8v1iutD4LPIPzBvW4PQtYEW1QUMAmIXdEH8rf5VAvCnnrBGoaZSP1AimvMD8gwPzt3ZhCWv_eW0j3LBE0TGWZOUdIgsXf7_dRsGdZkL5U80mkOBBUauSuflsVbrtjsgb2q3lb3BQybffuCDMhuEAWo31d0dQIKkCVfP-tT51qlhDXq7_yQ_dViRsLiltK59cJAbkmSPKHwj2qOBQxLa9bWPHazl9MS4z7lPc4wTsB--2e8bw9gMMtTvP9ZxRhpH8jCxYcEKwQwgCXG_wMZxFMS65MxsizQepD4w-SUHPa8uwVrMe5RMTFHks2QL1Wygff8gKNGTOgdD3HvuUncWh1GjOjHwdcUPLZqvtNMUMqDjYcDpRrkLiNaWvHUghOsYDH-OsJwY84Zt83ivp3FHrd5FxnCs6tsyl1fF9wDvho61TIV0O1B3c-HjyL-rRzI0Hw_EpawEQ2JKgzg254BHRx53oKR5wHwjW1hEC8QAKXHQnHbs2IL0ZAA8zYdbyG5EiIWu9rrIA6WOS9jcrYkkdd-PE2fDWyv941gsGi6w4IkfazA9OHke5kmyURWLfjQPm2MhG2-BhdDxzOf0hR3mzgeCNynH0_RbgAzMnfExqUJBTFOL1lCmEO6cVndkEA1ryOBqz8MW-OHAC05PJYjPfINuLDq6WvIPJO8s2V-X8O1HTonoj3xepIG5NXh1Yi33zRjpk9sCFz-E1Zv8VLFYbEP78KNhkAZGa2Z0vwTCSUlhPZbjEkGri0SQhM5kmaM5qaUoXYdLJFDSCs7Z_cvugPYQzqVr0m_Wlm40?></g></svg>