<svg xmlns="http://www.w3.org/2000/svg" xmlns:xlink="http://www.w3.org/1999/xlink" contentStyleType="text/css" data-diagram-type="CLASS" height="886px" preserveAspectRatio="none" style="width:846px;height:886px;background:#FFFFFF;" version="1.1" viewBox="0 0 846 886" width="846px" zoomAndPan="magnify"><?plantuml 1.2026.3beta6?><defs/><g><!--class OrderStatus--><g class="entity" data-qualified-name="OrderStatus" data-source-line="20" id="ent0002"><rect fill="#FFFFFF" height="129.4844" rx="2.5" ry="2.5" style="stroke:#5A5A5A;stroke-width:0.5;" width="110.5967" x="475.52" y="741.56"/><ellipse cx="490.52" cy="757.56" fill="#EB937F" rx="11" ry="11" style="stroke:#181818;stroke-width:1;"/><path d="M494.6294,763.56 L486.9106,763.56 L486.9106,751.1694 L494.6294,751.1694 L494.6294,753.3256 L489.3638,753.3256 L489.3638,755.9975 L494.1294,755.9975 L494.1294,758.1538 L489.3638,758.1538 L489.3638,761.4038 L494.6294,761.4038 L494.6294,763.56 Z " fill="#000000"/><text fill="#000000" font-family="Arial" font-size="13" lengthAdjust="spacing" textLength="78.5967" x="504.52" y="762.0605">OrderStatus</text><line style="stroke:#5A5A5A;stroke-width:0.5;" x1="476.52" x2="585.1167" y1="773.56" y2="773.56"/><text fill="#000000" font-family="sans-serif" font-size="14" lengthAdjust="spacing" textLength="63.9912" x="481.52" y="790.5551">PENDING</text><text fill="#000000" font-family="sans-serif" font-size="14" lengthAdjust="spacing" textLength="84.8818" x="481.52" y="806.852">CONFIRMED</text><text fill="#000000" font-family="sans-serif" font-size="14" lengthAdjust="spacing" textLength="60.0537" x="481.52" y="823.1489">SHIPPED</text><text fill="#000000" font-family="sans-serif" font-size="14" lengthAdjust="spacing" textLength="79.3311" x="481.52" y="839.4457">DELIVERED</text><text fill="#000000" font-family="sans-serif" font-size="14" lengthAdjust="spacing" textLength="83.6719" x="481.52" y="855.7426">CANCELLED</text><line style="stroke:#5A5A5A;stroke-width:0.5;" x1="476.52" x2="585.1167" y1="863.0444" y2="863.0444"/></g><!--class CartItem--><g class="entity" data-qualified-name="CartItem" data-source-line="29" id="ent0003"><rect fill="#FFFFFF" height="136.5859" rx="2.5" ry="2.5" style="stroke:#5A5A5A;stroke-width:0.5;" width="176.8555" x="442.39" y="7"/><ellipse cx="498.0287" cy="26.5508" fill="#ADD1B2" rx="11" ry="11" style="stroke:#181818;stroke-width:1;"/><path d="M500.9974,32.1914 Q500.4193,32.4883 499.7787,32.6289 Q499.138,32.7852 498.4349,32.7852 Q495.9349,32.7852 494.6068,31.1445 Q493.2943,29.4883 493.2943,26.3633 Q493.2943,23.2383 494.6068,21.582 Q495.9349,19.9258 498.4349,19.9258 Q499.138,19.9258 499.7787,20.082 Q500.4349,20.2383 500.9974,20.5352 L500.9974,23.2539 Q500.3724,22.6758 499.7787,22.4102 Q499.1849,22.1289 498.5599,22.1289 Q497.2162,22.1289 496.5287,23.207 Q495.8412,24.2695 495.8412,26.3633 Q495.8412,28.457 496.5287,29.5352 Q497.2162,30.5977 498.5599,30.5977 Q499.1849,30.5977 499.7787,30.332 Q500.3724,30.0508 500.9974,29.4727 L500.9974,32.1914 Z " fill="#000000"/><text fill="#000000" font-family="sans-serif" font-size="12" font-style="italic" lengthAdjust="spacing" textLength="59.1035" x="517.516" y="23.1387">&#171;session&#187;</text><text fill="#000000" font-family="Arial" font-size="13" lengthAdjust="spacing" textLength="57.0781" x="518.5287" y="38.0356">CartItem</text><line style="stroke:#5A5A5A;stroke-width:0.5;" x1="443.39" x2="618.2455" y1="46.1016" y2="46.1016"/><g data-visibility-modifier="PUBLIC_FIELD"><ellipse cx="453.39" cy="59.75" fill="none" rx="3" ry="3" style="stroke:#038048;stroke-width:1;"/></g><text fill="#000000" font-family="sans-serif" font-size="14" lengthAdjust="spacing" textLength="127.3877" x="462.39" y="63.0967">inventoryId : Long</text><g data-visibility-modifier="PUBLIC_FIELD"><ellipse cx="453.39" cy="76.0469" fill="none" rx="3" ry="3" style="stroke:#038048;stroke-width:1;"/></g><text fill="#000000" font-family="sans-serif" font-size="14" lengthAdjust="spacing" textLength="150.8555" x="462.39" y="79.3936">productName : String</text><g data-visibility-modifier="PUBLIC_FIELD"><ellipse cx="453.39" cy="92.3438" fill="none" rx="3" ry="3" style="stroke:#038048;stroke-width:1;"/></g><text fill="#000000" font-family="sans-serif" font-size="14" lengthAdjust="spacing" textLength="124.749" x="462.39" y="95.6904">unitPrice : Double</text><g data-visibility-modifier="PUBLIC_FIELD"><ellipse cx="453.39" cy="108.6406" fill="none" rx="3" ry="3" style="stroke:#038048;stroke-width:1;"/></g><text fill="#000000" font-family="sans-serif" font-size="14" lengthAdjust="spacing" textLength="122.3428" x="462.39" y="111.9873">quantity : Integer</text><line style="stroke:#5A5A5A;stroke-width:0.5;" x1="443.39" x2="618.2455" y1="119.2891" y2="119.2891"/><g data-visibility-modifier="PUBLIC_METHOD"><ellipse cx="453.39" cy="132.9375" fill="#84BE84" rx="3" ry="3" style="stroke:#038048;stroke-width:1;"/></g><text fill="#000000" font-family="sans-serif" font-size="14" lengthAdjust="spacing" textLength="131.2158" x="462.39" y="136.2842">subtotal() : Double</text></g><!--class Product--><g class="entity" data-qualified-name="Product" data-source-line="37" id="ent0004"><rect fill="#FFFFFF" height="162.0781" rx="2.5" ry="2.5" style="stroke:#5A5A5A;stroke-width:0.5;" width="159.2393" x="451.2" y="178.26"/><ellipse cx="501.6329" cy="194.26" fill="#ADD1B2" rx="11" ry="11" style="stroke:#181818;stroke-width:1;"/><path d="M504.6016,199.9006 Q504.0235,200.1975 503.3829,200.3381 Q502.7422,200.4944 502.0391,200.4944 Q499.5391,200.4944 498.211,198.8538 Q496.8985,197.1975 496.8985,194.0725 Q496.8985,190.9475 498.211,189.2913 Q499.5391,187.635 502.0391,187.635 Q502.7422,187.635 503.3829,187.7913 Q504.0391,187.9475 504.6016,188.2444 L504.6016,190.9631 Q503.9766,190.385 503.3829,190.1194 Q502.7891,189.8381 502.1641,189.8381 Q500.8204,189.8381 500.1329,190.9163 Q499.4454,191.9788 499.4454,194.0725 Q499.4454,196.1663 500.1329,197.2444 Q500.8204,198.3069 502.1641,198.3069 Q502.7891,198.3069 503.3829,198.0413 Q503.9766,197.76 504.6016,197.1819 L504.6016,199.9006 Z " fill="#000000"/><text fill="#000000" font-family="Arial" font-size="13" lengthAdjust="spacing" textLength="49.8735" x="522.1329" y="198.7605">Product</text><line style="stroke:#5A5A5A;stroke-width:0.5;" x1="452.2" x2="609.4393" y1="210.26" y2="210.26"/><g data-visibility-modifier="PUBLIC_FIELD"><ellipse cx="462.2" cy="223.9084" fill="none" rx="3" ry="3" style="stroke:#038048;stroke-width:1;"/></g><text fill="#000000" font-family="sans-serif" font-size="14" lengthAdjust="spacing" textLength="60.5186" x="471.2" y="227.2551">id : Long</text><g data-visibility-modifier="PUBLIC_FIELD"><ellipse cx="462.2" cy="240.2053" fill="none" rx="3" ry="3" style="stroke:#038048;stroke-width:1;"/></g><text fill="#000000" font-family="sans-serif" font-size="14" lengthAdjust="spacing" textLength="95.1016" x="471.2" y="243.552">name : String</text><g data-visibility-modifier="PUBLIC_FIELD"><ellipse cx="462.2" cy="256.5022" fill="none" rx="3" ry="3" style="stroke:#038048;stroke-width:1;"/></g><text fill="#000000" font-family="sans-serif" font-size="14" lengthAdjust="spacing" textLength="133.2393" x="471.2" y="259.8489">description : String</text><g data-visibility-modifier="PUBLIC_FIELD"><ellipse cx="462.2" cy="272.7991" fill="none" rx="3" ry="3" style="stroke:#038048;stroke-width:1;"/></g><text fill="#000000" font-family="sans-serif" font-size="14" lengthAdjust="spacing" textLength="98.0684" x="471.2" y="276.1457">price : Double</text><g data-visibility-modifier="PUBLIC_FIELD"><ellipse cx="462.2" cy="289.0959" fill="none" rx="3" ry="3" style="stroke:#038048;stroke-width:1;"/></g><text fill="#000000" font-family="sans-serif" font-size="14" lengthAdjust="spacing" textLength="79.6729" x="471.2" y="292.4426">sku : String</text><g data-visibility-modifier="PUBLIC_FIELD"><ellipse cx="462.2" cy="305.3928" fill="none" rx="3" ry="3" style="stroke:#038048;stroke-width:1;"/></g><text fill="#000000" font-family="sans-serif" font-size="14" lengthAdjust="spacing" textLength="99.0049" x="471.2" y="308.7395">image : String</text><g data-visibility-modifier="PUBLIC_FIELD"><ellipse cx="462.2" cy="321.6897" fill="none" rx="3" ry="3" style="stroke:#038048;stroke-width:1;"/></g><text fill="#000000" font-family="sans-serif" font-size="14" lengthAdjust="spacing" textLength="115.7803" x="471.2" y="325.0364">createdAt : Date</text><line style="stroke:#5A5A5A;stroke-width:0.5;" x1="452.2" x2="609.4393" y1="332.3381" y2="332.3381"/></g><!--class Category--><g class="entity" data-qualified-name="Category" data-source-line="47" id="ent0005"><rect fill="#FFFFFF" height="113.1875" rx="2.5" ry="2.5" style="stroke:#5A5A5A;stroke-width:0.5;" width="159.2393" x="219.13" y="79.7"/><ellipse cx="264.8085" cy="95.7" fill="#ADD1B2" rx="11" ry="11" style="stroke:#181818;stroke-width:1;"/><path d="M267.7772,101.3406 Q267.1991,101.6375 266.5585,101.7781 Q265.9178,101.9344 265.2147,101.9344 Q262.7147,101.9344 261.3866,100.2937 Q260.0741,98.6375 260.0741,95.5125 Q260.0741,92.3875 261.3866,90.7312 Q262.7147,89.075 265.2147,89.075 Q265.9178,89.075 266.5585,89.2312 Q267.2147,89.3875 267.7772,89.6844 L267.7772,92.4031 Q267.1522,91.825 266.5585,91.5594 Q265.9647,91.2781 265.3397,91.2781 Q263.996,91.2781 263.3085,92.3562 Q262.621,93.4187 262.621,95.5125 Q262.621,97.6062 263.3085,98.6844 Q263.996,99.7469 265.3397,99.7469 Q265.9647,99.7469 266.5585,99.4812 Q267.1522,99.2 267.7772,98.6219 L267.7772,101.3406 Z " fill="#000000"/><text fill="#000000" font-family="Arial" font-size="13" lengthAdjust="spacing" textLength="59.3823" x="285.3085" y="100.2005">Category</text><line style="stroke:#5A5A5A;stroke-width:0.5;" x1="220.13" x2="377.3693" y1="111.7" y2="111.7"/><g data-visibility-modifier="PUBLIC_FIELD"><ellipse cx="230.13" cy="125.3484" fill="none" rx="3" ry="3" style="stroke:#038048;stroke-width:1;"/></g><text fill="#000000" font-family="sans-serif" font-size="14" lengthAdjust="spacing" textLength="60.5186" x="239.13" y="128.6951">id : Long</text><g data-visibility-modifier="PUBLIC_FIELD"><ellipse cx="230.13" cy="141.6453" fill="none" rx="3" ry="3" style="stroke:#038048;stroke-width:1;"/></g><text fill="#000000" font-family="sans-serif" font-size="14" lengthAdjust="spacing" textLength="95.1016" x="239.13" y="144.992">name : String</text><g data-visibility-modifier="PUBLIC_FIELD"><ellipse cx="230.13" cy="157.9422" fill="none" rx="3" ry="3" style="stroke:#038048;stroke-width:1;"/></g><text fill="#000000" font-family="sans-serif" font-size="14" lengthAdjust="spacing" textLength="133.2393" x="239.13" y="161.2889">description : String</text><g data-visibility-modifier="PUBLIC_FIELD"><ellipse cx="230.13" cy="174.2391" fill="none" rx="3" ry="3" style="stroke:#038048;stroke-width:1;"/></g><text fill="#000000" font-family="sans-serif" font-size="14" lengthAdjust="spacing" textLength="99.0049" x="239.13" y="177.5857">image : String</text><line style="stroke:#5A5A5A;stroke-width:0.5;" x1="220.13" x2="377.3693" y1="184.8875" y2="184.8875"/></g><!--class User--><g class="entity" data-qualified-name="User" data-source-line="54" id="ent0006"><rect fill="#FFFFFF" height="113.1875" rx="2.5" ry="2.5" style="stroke:#5A5A5A;stroke-width:0.5;" width="148.1104" x="7" y="609.7"/><ellipse cx="61.9897" cy="625.7" fill="#ADD1B2" rx="11" ry="11" style="stroke:#181818;stroke-width:1;"/><path d="M64.9585,631.3406 Q64.3804,631.6375 63.7397,631.7781 Q63.0991,631.9344 62.396,631.9344 Q59.896,631.9344 58.5679,630.2938 Q57.2554,628.6375 57.2554,625.5125 Q57.2554,622.3875 58.5679,620.7313 Q59.896,619.075 62.396,619.075 Q63.0991,619.075 63.7397,619.2313 Q64.396,619.3875 64.9585,619.6844 L64.9585,622.4031 Q64.3335,621.825 63.7397,621.5594 Q63.146,621.2781 62.521,621.2781 Q61.1772,621.2781 60.4897,622.3563 Q59.8022,623.4188 59.8022,625.5125 Q59.8022,627.6063 60.4897,628.6844 Q61.1772,629.7469 62.521,629.7469 Q63.146,629.7469 63.7397,629.4813 Q64.3335,629.2 64.9585,628.6219 L64.9585,631.3406 Z " fill="#000000"/><text fill="#000000" font-family="Arial" font-size="13" lengthAdjust="spacing" textLength="29.6309" x="82.4897" y="630.2005">User</text><line style="stroke:#5A5A5A;stroke-width:0.5;" x1="8" x2="154.1104" y1="641.7" y2="641.7"/><g data-visibility-modifier="PUBLIC_FIELD"><ellipse cx="18" cy="655.3484" fill="none" rx="3" ry="3" style="stroke:#038048;stroke-width:1;"/></g><text fill="#000000" font-family="sans-serif" font-size="14" lengthAdjust="spacing" textLength="60.5186" x="27" y="658.6951">id : Long</text><g data-visibility-modifier="PUBLIC_FIELD"><ellipse cx="18" cy="671.6453" fill="none" rx="3" ry="3" style="stroke:#038048;stroke-width:1;"/></g><text fill="#000000" font-family="sans-serif" font-size="14" lengthAdjust="spacing" textLength="94.0078" x="27" y="674.992">email : String</text><g data-visibility-modifier="PUBLIC_FIELD"><ellipse cx="18" cy="687.9422" fill="none" rx="3" ry="3" style="stroke:#038048;stroke-width:1;"/></g><text fill="#000000" font-family="sans-serif" font-size="14" lengthAdjust="spacing" textLength="122.1104" x="27" y="691.2889">password : String</text><g data-visibility-modifier="PUBLIC_FIELD"><ellipse cx="18" cy="704.2391" fill="none" rx="3" ry="3" style="stroke:#038048;stroke-width:1;"/></g><text fill="#000000" font-family="sans-serif" font-size="14" lengthAdjust="spacing" textLength="117.7627" x="27" y="707.5857">enable : Boolean</text><line style="stroke:#5A5A5A;stroke-width:0.5;" x1="8" x2="154.1104" y1="714.8875" y2="714.8875"/></g><!--class Role--><g class="entity" data-qualified-name="Role" data-source-line="61" id="ent0007"><rect fill="#FFFFFF" height="80.5938" rx="2.5" ry="2.5" style="stroke:#5A5A5A;stroke-width:0.5;" width="121.1016" x="238.2" y="692"/><ellipse cx="280.4274" cy="708" fill="#ADD1B2" rx="11" ry="11" style="stroke:#181818;stroke-width:1;"/><path d="M283.3962,713.6406 Q282.818,713.9375 282.1774,714.0781 Q281.5368,714.2344 280.8337,714.2344 Q278.3337,714.2344 277.0055,712.5938 Q275.693,710.9375 275.693,707.8125 Q275.693,704.6875 277.0055,703.0313 Q278.3337,701.375 280.8337,701.375 Q281.5368,701.375 282.1774,701.5313 Q282.8337,701.6875 283.3962,701.9844 L283.3962,704.7031 Q282.7712,704.125 282.1774,703.8594 Q281.5837,703.5781 280.9587,703.5781 Q279.6149,703.5781 278.9274,704.6563 Q278.2399,705.7188 278.2399,707.8125 Q278.2399,709.9063 278.9274,710.9844 Q279.6149,712.0469 280.9587,712.0469 Q281.5837,712.0469 282.1774,711.7813 Q282.7712,711.5 283.3962,710.9219 L283.3962,713.6406 Z " fill="#000000"/><text fill="#000000" font-family="Arial" font-size="13" lengthAdjust="spacing" textLength="28.5962" x="300.478" y="712.5005">Role</text><line style="stroke:#5A5A5A;stroke-width:0.5;" x1="239.2" x2="358.3016" y1="724" y2="724"/><g data-visibility-modifier="PUBLIC_FIELD"><ellipse cx="249.2" cy="737.6484" fill="none" rx="3" ry="3" style="stroke:#038048;stroke-width:1;"/></g><text fill="#000000" font-family="sans-serif" font-size="14" lengthAdjust="spacing" textLength="60.5186" x="258.2" y="740.9951">id : Long</text><g data-visibility-modifier="PUBLIC_FIELD"><ellipse cx="249.2" cy="753.9453" fill="none" rx="3" ry="3" style="stroke:#038048;stroke-width:1;"/></g><text fill="#000000" font-family="sans-serif" font-size="14" lengthAdjust="spacing" textLength="95.1016" x="258.2" y="757.292">name : String</text><line style="stroke:#5A5A5A;stroke-width:0.5;" x1="239.2" x2="358.3016" y1="764.5938" y2="764.5938"/></g><!--class Order--><g class="entity" data-qualified-name="Order" data-source-line="66" id="ent0008"><rect fill="#FFFFFF" height="113.1875" rx="2.5" ry="2.5" style="stroke:#5A5A5A;stroke-width:0.5;" width="167.2783" x="215.11" y="543.7"/><ellipse cx="275.9132" cy="559.7" fill="#ADD1B2" rx="11" ry="11" style="stroke:#181818;stroke-width:1;"/><path d="M278.882,565.3406 Q278.3038,565.6375 277.6632,565.7781 Q277.0226,565.9344 276.3195,565.9344 Q273.8195,565.9344 272.4913,564.2938 Q271.1788,562.6375 271.1788,559.5125 Q271.1788,556.3875 272.4913,554.7313 Q273.8195,553.075 276.3195,553.075 Q277.0226,553.075 277.6632,553.2313 Q278.3195,553.3875 278.882,553.6844 L278.882,556.4031 Q278.257,555.825 277.6632,555.5594 Q277.0695,555.2781 276.4445,555.2781 Q275.1007,555.2781 274.4132,556.3563 Q273.7257,557.4188 273.7257,559.5125 Q273.7257,561.6063 274.4132,562.6844 Q275.1007,563.7469 276.4445,563.7469 Q277.0695,563.7469 277.6632,563.4813 Q278.257,563.2 278.882,562.6219 L278.882,565.3406 Z " fill="#000000"/><text fill="#000000" font-family="Arial" font-size="13" lengthAdjust="spacing" textLength="37.1719" x="296.4132" y="564.2005">Order</text><line style="stroke:#5A5A5A;stroke-width:0.5;" x1="216.11" x2="381.3883" y1="575.7" y2="575.7"/><g data-visibility-modifier="PUBLIC_FIELD"><ellipse cx="226.11" cy="589.3484" fill="none" rx="3" ry="3" style="stroke:#038048;stroke-width:1;"/></g><text fill="#000000" font-family="sans-serif" font-size="14" lengthAdjust="spacing" textLength="60.5186" x="235.11" y="592.6951">id : Long</text><g data-visibility-modifier="PUBLIC_FIELD"><ellipse cx="226.11" cy="605.6453" fill="none" rx="3" ry="3" style="stroke:#038048;stroke-width:1;"/></g><text fill="#000000" font-family="sans-serif" font-size="14" lengthAdjust="spacing" textLength="118.1182" x="235.11" y="608.992">orderDate : Date</text><g data-visibility-modifier="PUBLIC_FIELD"><ellipse cx="226.11" cy="621.9422" fill="none" rx="3" ry="3" style="stroke:#038048;stroke-width:1;"/></g><text fill="#000000" font-family="sans-serif" font-size="14" lengthAdjust="spacing" textLength="141.2783" x="235.11" y="625.2889">status : OrderStatus</text><g data-visibility-modifier="PUBLIC_FIELD"><ellipse cx="226.11" cy="638.2391" fill="none" rx="3" ry="3" style="stroke:#038048;stroke-width:1;"/></g><text fill="#000000" font-family="sans-serif" font-size="14" lengthAdjust="spacing" textLength="95.2383" x="235.11" y="641.5857">total : Double</text><line style="stroke:#5A5A5A;stroke-width:0.5;" x1="216.11" x2="381.3883" y1="648.8875" y2="648.8875"/></g><!--class OrderItem--><g class="entity" data-qualified-name="OrderItem" data-source-line="73" id="ent0009"><rect fill="#FFFFFF" height="96.8906" rx="2.5" ry="2.5" style="stroke:#5A5A5A;stroke-width:0.5;" width="150.749" x="455.44" y="445.85"/><ellipse cx="493.833" cy="461.85" fill="#ADD1B2" rx="11" ry="11" style="stroke:#181818;stroke-width:1;"/><path d="M496.8017,467.4906 Q496.2236,467.7875 495.583,467.9281 Q494.9423,468.0844 494.2392,468.0844 Q491.7392,468.0844 490.4111,466.4437 Q489.0986,464.7875 489.0986,461.6625 Q489.0986,458.5375 490.4111,456.8812 Q491.7392,455.225 494.2392,455.225 Q494.9423,455.225 495.583,455.3812 Q496.2392,455.5375 496.8017,455.8344 L496.8017,458.5531 Q496.1767,457.975 495.583,457.7094 Q494.9892,457.4281 494.3642,457.4281 Q493.0205,457.4281 492.333,458.5062 Q491.6455,459.5687 491.6455,461.6625 Q491.6455,463.7562 492.333,464.8344 Q493.0205,465.8969 494.3642,465.8969 Q494.9892,465.8969 495.583,465.6312 Q496.1767,465.35 496.8017,464.7719 L496.8017,467.4906 Z " fill="#000000"/><text fill="#000000" font-family="Arial" font-size="13" lengthAdjust="spacing" textLength="66.7646" x="513.0314" y="466.3505">OrderItem</text><line style="stroke:#5A5A5A;stroke-width:0.5;" x1="456.44" x2="605.189" y1="477.85" y2="477.85"/><g data-visibility-modifier="PUBLIC_FIELD"><ellipse cx="466.44" cy="491.4984" fill="none" rx="3" ry="3" style="stroke:#038048;stroke-width:1;"/></g><text fill="#000000" font-family="sans-serif" font-size="14" lengthAdjust="spacing" textLength="60.5186" x="475.44" y="494.8451">id : Long</text><g data-visibility-modifier="PUBLIC_FIELD"><ellipse cx="466.44" cy="507.7953" fill="none" rx="3" ry="3" style="stroke:#038048;stroke-width:1;"/></g><text fill="#000000" font-family="sans-serif" font-size="14" lengthAdjust="spacing" textLength="122.3428" x="475.44" y="511.142">quantity : Integer</text><g data-visibility-modifier="PUBLIC_FIELD"><ellipse cx="466.44" cy="524.0922" fill="none" rx="3" ry="3" style="stroke:#038048;stroke-width:1;"/></g><text fill="#000000" font-family="sans-serif" font-size="14" lengthAdjust="spacing" textLength="124.749" x="475.44" y="527.4389">unitPrice : Double</text><line style="stroke:#5A5A5A;stroke-width:0.5;" x1="456.44" x2="605.189" y1="534.7406" y2="534.7406"/></g><!--class Store--><g class="entity" data-qualified-name="Store" data-source-line="79" id="ent0010"><rect fill="#FFFFFF" height="113.1875" rx="2.5" ry="2.5" style="stroke:#5A5A5A;stroke-width:0.5;" width="136.708" x="12.7" y="378.7"/><ellipse cx="59.4813" cy="394.7" fill="#ADD1B2" rx="11" ry="11" style="stroke:#181818;stroke-width:1;"/><path d="M62.45,400.3406 Q61.8719,400.6375 61.2313,400.7781 Q60.5906,400.9344 59.8875,400.9344 Q57.3875,400.9344 56.0594,399.2938 Q54.7469,397.6375 54.7469,394.5125 Q54.7469,391.3875 56.0594,389.7313 Q57.3875,388.075 59.8875,388.075 Q60.5906,388.075 61.2313,388.2313 Q61.8875,388.3875 62.45,388.6844 L62.45,391.4031 Q61.825,390.825 61.2313,390.5594 Q60.6375,390.2781 60.0125,390.2781 Q58.6688,390.2781 57.9813,391.3563 Q57.2938,392.4188 57.2938,394.5125 Q57.2938,396.6063 57.9813,397.6844 Q58.6688,398.7469 60.0125,398.7469 Q60.6375,398.7469 61.2313,398.4813 Q61.825,398.2 62.45,397.6219 L62.45,400.3406 Z " fill="#000000"/><text fill="#000000" font-family="Arial" font-size="13" lengthAdjust="spacing" textLength="34.6455" x="79.9813" y="399.2005">Store</text><line style="stroke:#5A5A5A;stroke-width:0.5;" x1="13.7" x2="148.408" y1="410.7" y2="410.7"/><g data-visibility-modifier="PUBLIC_FIELD"><ellipse cx="23.7" cy="424.3484" fill="none" rx="3" ry="3" style="stroke:#038048;stroke-width:1;"/></g><text fill="#000000" font-family="sans-serif" font-size="14" lengthAdjust="spacing" textLength="60.5186" x="32.7" y="427.6951">id : Long</text><g data-visibility-modifier="PUBLIC_FIELD"><ellipse cx="23.7" cy="440.6453" fill="none" rx="3" ry="3" style="stroke:#038048;stroke-width:1;"/></g><text fill="#000000" font-family="sans-serif" font-size="14" lengthAdjust="spacing" textLength="95.1016" x="32.7" y="443.992">name : String</text><g data-visibility-modifier="PUBLIC_FIELD"><ellipse cx="23.7" cy="456.9422" fill="none" rx="3" ry="3" style="stroke:#038048;stroke-width:1;"/></g><text fill="#000000" font-family="sans-serif" font-size="14" lengthAdjust="spacing" textLength="110.708" x="32.7" y="460.2889">address : String</text><g data-visibility-modifier="PUBLIC_FIELD"><ellipse cx="23.7" cy="473.2391" fill="none" rx="3" ry="3" style="stroke:#038048;stroke-width:1;"/></g><text fill="#000000" font-family="sans-serif" font-size="14" lengthAdjust="spacing" textLength="99.21" x="32.7" y="476.5857">phone : String</text><line style="stroke:#5A5A5A;stroke-width:0.5;" x1="13.7" x2="148.408" y1="483.8875" y2="483.8875"/></g><!--class Payment--><g class="entity" data-qualified-name="Payment" data-source-line="86" id="ent0011"><rect fill="#FFFFFF" height="129.4844" rx="2.5" ry="2.5" style="stroke:#5A5A5A;stroke-width:0.5;" width="168.9053" x="446.36" y="577.56"/><ellipse cx="497.8141" cy="593.56" fill="#ADD1B2" rx="11" ry="11" style="stroke:#181818;stroke-width:1;"/><path d="M500.7829,599.2006 Q500.2047,599.4975 499.5641,599.6381 Q498.9235,599.7944 498.2204,599.7944 Q495.7204,599.7944 494.3922,598.1538 Q493.0797,596.4975 493.0797,593.3725 Q493.0797,590.2475 494.3922,588.5913 Q495.7204,586.935 498.2204,586.935 Q498.9235,586.935 499.5641,587.0913 Q500.2204,587.2475 500.7829,587.5444 L500.7829,590.2631 Q500.1579,589.685 499.5641,589.4194 Q498.9704,589.1381 498.3454,589.1381 Q497.0016,589.1381 496.3141,590.2163 Q495.6266,591.2788 495.6266,593.3725 Q495.6266,595.4663 496.3141,596.5444 Q497.0016,597.6069 498.3454,597.6069 Q498.9704,597.6069 499.5641,597.3413 Q500.1579,597.06 500.7829,596.4819 L500.7829,599.2006 Z " fill="#000000"/><text fill="#000000" font-family="Arial" font-size="13" lengthAdjust="spacing" textLength="57.4971" x="518.3141" y="598.0605">Payment</text><line style="stroke:#5A5A5A;stroke-width:0.5;" x1="447.36" x2="614.2653" y1="609.56" y2="609.56"/><g data-visibility-modifier="PUBLIC_FIELD"><ellipse cx="457.36" cy="623.2084" fill="none" rx="3" ry="3" style="stroke:#038048;stroke-width:1;"/></g><text fill="#000000" font-family="sans-serif" font-size="14" lengthAdjust="spacing" textLength="60.5186" x="466.36" y="626.5551">id : Long</text><g data-visibility-modifier="PUBLIC_FIELD"><ellipse cx="457.36" cy="639.5053" fill="none" rx="3" ry="3" style="stroke:#038048;stroke-width:1;"/></g><text fill="#000000" font-family="sans-serif" font-size="14" lengthAdjust="spacing" textLength="109.4639" x="466.36" y="642.852">method : String</text><g data-visibility-modifier="PUBLIC_FIELD"><ellipse cx="457.36" cy="655.8022" fill="none" rx="3" ry="3" style="stroke:#038048;stroke-width:1;"/></g><text fill="#000000" font-family="sans-serif" font-size="14" lengthAdjust="spacing" textLength="117.2432" x="466.36" y="659.1489">amount : Double</text><g data-visibility-modifier="PUBLIC_FIELD"><ellipse cx="457.36" cy="672.0991" fill="none" rx="3" ry="3" style="stroke:#038048;stroke-width:1;"/></g><text fill="#000000" font-family="sans-serif" font-size="14" lengthAdjust="spacing" textLength="113.3262" x="466.36" y="675.4457">status : Boolean</text><g data-visibility-modifier="PUBLIC_FIELD"><ellipse cx="457.36" cy="688.3959" fill="none" rx="3" ry="3" style="stroke:#038048;stroke-width:1;"/></g><text fill="#000000" font-family="sans-serif" font-size="14" lengthAdjust="spacing" textLength="142.9053" x="466.36" y="691.7426">paymentDate : Date</text><line style="stroke:#5A5A5A;stroke-width:0.5;" x1="447.36" x2="614.2653" y1="699.0444" y2="699.0444"/></g><!--class Supplier--><g class="entity" data-qualified-name="Supplier" data-source-line="94" id="ent0012"><rect fill="#FFFFFF" height="96.8906" rx="2.5" ry="2.5" style="stroke:#5A5A5A;stroke-width:0.5;" width="160.2852" x="218.61" y="227.85"/><ellipse cx="267.7218" cy="243.85" fill="#ADD1B2" rx="11" ry="11" style="stroke:#181818;stroke-width:1;"/><path d="M270.6906,249.4906 Q270.1124,249.7875 269.4718,249.9281 Q268.8312,250.0844 268.1281,250.0844 Q265.6281,250.0844 264.2999,248.4437 Q262.9874,246.7875 262.9874,243.6625 Q262.9874,240.5375 264.2999,238.8812 Q265.6281,237.225 268.1281,237.225 Q268.8312,237.225 269.4718,237.3812 Q270.1281,237.5375 270.6906,237.8344 L270.6906,240.5531 Q270.0656,239.975 269.4718,239.7094 Q268.8781,239.4281 268.2531,239.4281 Q266.9093,239.4281 266.2218,240.5062 Q265.5343,241.5687 265.5343,243.6625 Q265.5343,245.7562 266.2218,246.8344 Q266.9093,247.8969 268.2531,247.8969 Q268.8781,247.8969 269.4718,247.6312 Q270.0656,247.35 270.6906,246.7719 L270.6906,249.4906 Z " fill="#000000"/><text fill="#000000" font-family="Arial" font-size="13" lengthAdjust="spacing" textLength="53.5615" x="288.2218" y="248.3505">Supplier</text><line style="stroke:#5A5A5A;stroke-width:0.5;" x1="219.61" x2="377.8952" y1="259.85" y2="259.85"/><g data-visibility-modifier="PUBLIC_FIELD"><ellipse cx="229.61" cy="273.4984" fill="none" rx="3" ry="3" style="stroke:#038048;stroke-width:1;"/></g><text fill="#000000" font-family="sans-serif" font-size="14" lengthAdjust="spacing" textLength="60.5186" x="238.61" y="276.8451">id : Long</text><g data-visibility-modifier="PUBLIC_FIELD"><ellipse cx="229.61" cy="289.7953" fill="none" rx="3" ry="3" style="stroke:#038048;stroke-width:1;"/></g><text fill="#000000" font-family="sans-serif" font-size="14" lengthAdjust="spacing" textLength="95.1016" x="238.61" y="293.142">name : String</text><g data-visibility-modifier="PUBLIC_FIELD"><ellipse cx="229.61" cy="306.0922" fill="none" rx="3" ry="3" style="stroke:#038048;stroke-width:1;"/></g><text fill="#000000" font-family="sans-serif" font-size="14" lengthAdjust="spacing" textLength="134.2852" x="238.61" y="309.4389">contactInfo : String</text><line style="stroke:#5A5A5A;stroke-width:0.5;" x1="219.61" x2="377.8952" y1="316.7406" y2="316.7406"/></g><!--class Inventory--><g class="entity" data-qualified-name="Inventory" data-source-line="100" id="ent0013"><rect fill="#FFFFFF" height="113.1875" rx="2.5" ry="2.5" style="stroke:#5A5A5A;stroke-width:0.5;" width="151.7949" x="679.24" y="269.7"/><ellipse cx="720.206" cy="285.7" fill="#ADD1B2" rx="11" ry="11" style="stroke:#181818;stroke-width:1;"/><path d="M723.1747,291.3406 Q722.5966,291.6375 721.956,291.7781 Q721.3153,291.9344 720.6122,291.9344 Q718.1122,291.9344 716.7841,290.2937 Q715.4716,288.6375 715.4716,285.5125 Q715.4716,282.3875 716.7841,280.7312 Q718.1122,279.075 720.6122,279.075 Q721.3153,279.075 721.956,279.2312 Q722.6122,279.3875 723.1747,279.6844 L723.1747,282.4031 Q722.5497,281.825 721.956,281.5594 Q721.3622,281.2781 720.7372,281.2781 Q719.3935,281.2781 718.706,282.3562 Q718.0185,283.4187 718.0185,285.5125 Q718.0185,287.6062 718.706,288.6844 Q719.3935,289.7469 720.7372,289.7469 Q721.3622,289.7469 721.956,289.4812 Q722.5497,289.2 723.1747,288.6219 L723.1747,291.3406 Z " fill="#000000"/><text fill="#000000" font-family="Arial" font-size="13" lengthAdjust="spacing" textLength="62.0928" x="739.9762" y="290.2005">Inventory</text><line style="stroke:#5A5A5A;stroke-width:0.5;" x1="680.24" x2="830.0349" y1="301.7" y2="301.7"/><g data-visibility-modifier="PUBLIC_FIELD"><ellipse cx="690.24" cy="315.3484" fill="none" rx="3" ry="3" style="stroke:#038048;stroke-width:1;"/></g><text fill="#000000" font-family="sans-serif" font-size="14" lengthAdjust="spacing" textLength="60.5186" x="699.24" y="318.6951">id : Long</text><g data-visibility-modifier="PUBLIC_FIELD"><ellipse cx="690.24" cy="331.6453" fill="none" rx="3" ry="3" style="stroke:#038048;stroke-width:1;"/></g><text fill="#000000" font-family="sans-serif" font-size="14" lengthAdjust="spacing" textLength="118.2822" x="699.24" y="334.992">onHand : Integer</text><g data-visibility-modifier="PUBLIC_FIELD"><ellipse cx="690.24" cy="347.9422" fill="none" rx="3" ry="3" style="stroke:#038048;stroke-width:1;"/></g><text fill="#000000" font-family="sans-serif" font-size="14" lengthAdjust="spacing" textLength="125.7949" x="699.24" y="351.2889">reserved : Integer</text><g data-visibility-modifier="PUBLIC_FIELD"><ellipse cx="690.24" cy="364.2391" fill="none" rx="3" ry="3" style="stroke:#038048;stroke-width:1;"/></g><text fill="#000000" font-family="sans-serif" font-size="14" lengthAdjust="spacing" textLength="120.3604" x="699.24" y="367.5857">updatedAt : Date</text><line style="stroke:#5A5A5A;stroke-width:0.5;" x1="680.24" x2="830.0349" y1="374.8875" y2="374.8875"/></g><!--link Category to Product--><g class="link" data-entity-1="ent0005" data-entity-2="ent0004" data-link-type="association" data-source-line="112" id="lnk14"><path codeLine="112" d="M378.61,185.58 C401.95,185.58 427.46,185.58 450.8,185.58" fill="none" id="Category-Product" style="stroke:#5A5A5A;stroke-width:1;"/><text fill="#000000" font-family="sans-serif" font-size="13" lengthAdjust="spacing" textLength="23.0356" x="386.4628" y="202.5327">0..*</text><text fill="#000000" font-family="sans-serif" font-size="13" lengthAdjust="spacing" textLength="23.0356" x="420.2225" y="192.1686">0..*</text></g><!--link User to Role--><g class="link" data-entity-1="ent0006" data-entity-2="ent0007" data-link-type="association" data-source-line="113" id="lnk15"><path codeLine="113" d="M155.36,707.45 C182.22,707.45 212.2,707.45 237.77,707.45" fill="none" id="User-Role" style="stroke:#5A5A5A;stroke-width:1;"/><text fill="#000000" font-family="sans-serif" font-size="13" lengthAdjust="spacing" textLength="23.0356" x="163.0036" y="723.8563">0..*</text><text fill="#000000" font-family="sans-serif" font-size="13" lengthAdjust="spacing" textLength="23.0356" x="207.2973" y="717.7348">0..*</text></g><!--link Supplier to Product--><g class="link" data-entity-1="ent0012" data-entity-2="ent0004" data-link-type="association" data-source-line="114" id="lnk16"><path codeLine="114" d="M379.26,276.3 C402.44,276.3 427.7,276.3 450.84,276.3" fill="none" id="Supplier-Product" style="stroke:#5A5A5A;stroke-width:1;"/><text fill="#000000" font-family="sans-serif" font-size="13" lengthAdjust="spacing" textLength="23.0356" x="386.8808" y="288.9939">0..*</text><text fill="#000000" font-family="sans-serif" font-size="13" lengthAdjust="spacing" textLength="23.0356" x="420.2658" y="290.4014">0..*</text></g><!--link User to Order--><g class="link" data-entity-1="ent0006" data-entity-2="ent0008" data-link-type="association" data-source-line="117" id="lnk17"><path codeLine="117" d="M155.36,633.3 C174.46,633.3 195.13,633.3 214.68,633.3" fill="none" id="User-Order" style="stroke:#5A5A5A;stroke-width:1;"/><text fill="#000000" font-family="sans-serif" font-size="13" lengthAdjust="spacing" textLength="8.271" x="163.0815" y="642.8639">1</text><text fill="#000000" font-family="sans-serif" font-size="13" lengthAdjust="spacing" textLength="23.0356" x="184.0658" y="648.6">0..*</text></g><!--link Store to Order--><g class="link" data-entity-1="ent0010" data-entity-2="ent0008" data-link-type="association" data-source-line="118" id="lnk18"><path codeLine="118" d="M82.04,492 C82.04,531.34 82.04,576.7 82.04,576.7 C82.04,576.7 153.74,576.7 214.65,576.7" fill="none" id="Store-Order" style="stroke:#5A5A5A;stroke-width:1;"/><text fill="#000000" font-family="sans-serif" font-size="13" lengthAdjust="spacing" textLength="8.271" x="73.6892" y="511.9001">1</text><text fill="#000000" font-family="sans-serif" font-size="13" lengthAdjust="spacing" textLength="23.0356" x="184.0334" y="587.4897">0..*</text></g><!--reverse link Order to OrderItem--><g class="link" data-entity-1="ent0008" data-entity-2="ent0009" data-link-type="composition" data-source-line="121" id="lnk19"><path codeLine="121" d="M394.61,560.63 C461.15,560.63 531.04,560.63 531.04,560.63 C531.04,560.63 531.04,553.14 531.04,543.2" fill="none" id="Order-backto-OrderItem" style="stroke:#5A5A5A;stroke-width:1;"/><polygon fill="#5A5A5A" points="382.61,560.63,388.61,564.63,394.61,560.63,388.61,556.63,382.61,560.63" style="stroke:#5A5A5A;stroke-width:1;"/><text fill="#000000" font-family="sans-serif" font-size="13" lengthAdjust="spacing" textLength="8.271" x="390.4472" y="569.8382">1</text><text fill="#000000" font-family="sans-serif" font-size="13" lengthAdjust="spacing" textLength="23.0356" x="506.5274" y="562.8552">1..*</text></g><!--link OrderItem to Inventory--><g class="link" data-entity-1="ent0009" data-entity-2="ent0013" data-link-type="association" data-source-line="124" id="lnk20"><path codeLine="124" d="M531.04,445.4 C531.04,409.11 531.04,365.91 531.04,365.91 C531.04,365.91 613.99,365.91 678.96,365.91" fill="none" id="OrderItem-Inventory" style="stroke:#5A5A5A;stroke-width:1;"/><text fill="#000000" font-family="sans-serif" font-size="13" lengthAdjust="spacing" textLength="23.0356" x="506.5274" y="434.8977">0..*</text><text fill="#000000" font-family="sans-serif" font-size="13" lengthAdjust="spacing" textLength="8.271" x="663.0809" y="382.6214">1</text></g><!--link Order to Payment--><g class="link" data-entity-1="ent0008" data-entity-2="ent0011" data-link-type="association" data-source-line="127" id="lnk21"><path codeLine="127" d="M382.86,617.22 C403.48,617.22 425.57,617.22 446.21,617.22" fill="none" id="Order-Payment" style="stroke:#5A5A5A;stroke-width:1;"/><text fill="#000000" font-family="sans-serif" font-size="13" lengthAdjust="spacing" textLength="8.271" x="390.4437" y="631.3917">1</text><text fill="#000000" font-family="sans-serif" font-size="13" lengthAdjust="spacing" textLength="24.8066" x="413.6422" y="627.7269">0..1</text></g><!--link Store to Inventory--><g class="link" data-entity-1="ent0010" data-entity-2="ent0013" data-link-type="association" data-source-line="130" id="lnk22"><path codeLine="130" d="M82.04,378.23 C82.04,364.2 82.04,353.13 82.04,353.13 C82.04,353.13 502.68,353.13 678.91,353.13" fill="none" id="Store-Inventory" style="stroke:#5A5A5A;stroke-width:1;"/><text fill="#000000" font-family="sans-serif" font-size="13" lengthAdjust="spacing" textLength="8.271" x="73.6892" y="367.4363">1</text><text fill="#000000" font-family="sans-serif" font-size="13" lengthAdjust="spacing" textLength="23.0356" x="648.0984" y="351.9249">0..*</text></g><!--link Product to Inventory--><g class="link" data-entity-1="ent0004" data-entity-2="ent0013" data-link-type="association" data-source-line="131" id="lnk23"><path codeLine="131" d="M610.85,305.02 C633,305.02 656.97,305.02 678.89,305.02" fill="none" id="Product-Inventory" style="stroke:#5A5A5A;stroke-width:1;"/><text fill="#000000" font-family="sans-serif" font-size="13" lengthAdjust="spacing" textLength="8.271" x="618.346" y="321.8328">1</text><text fill="#000000" font-family="sans-serif" font-size="13" lengthAdjust="spacing" textLength="23.0356" x="648.0766" y="315.8661">0..*</text></g><!--link CartItem to Inventory--><g class="link" data-entity-1="ent0003" data-entity-2="ent0013" data-link-type="dependency" data-source-line="134" id="lnk24"><path codeLine="134" d="M619.51,75.3 C682.53,75.3 756.04,75.3 756.04,75.3 C756.04,75.3 756.04,189.29 756.04,263.34" fill="none" id="CartItem-to-Inventory" style="stroke:#5A5A5A;stroke-width:1;stroke-dasharray:7,7;"/><polygon fill="#5A5A5A" points="756.04,269.34,760.04,260.34,756.04,264.34,752.04,260.34,756.04,269.34" style="stroke:#5A5A5A;stroke-width:1;"/><text fill="#000000" font-family="sans-serif" font-size="13" lengthAdjust="spacing" textLength="69.418" x="676.2788" y="117.1169">references</text><text fill="#000000" font-family="sans-serif" font-size="13" lengthAdjust="spacing" textLength="89.8955" x="666.04" y="132.2497">(session only)</text></g><!--link Order to OrderStatus--><g class="link" data-entity-1="ent0008" data-entity-2="ent0002" data-link-type="dependency" data-source-line="136" id="lnk25"><path codeLine="136" d="M371.04,657.34 C371.04,702.17 371.04,757.08 371.04,757.08 C371.04,757.08 423.23,757.08 469.38,757.08" fill="none" id="Order-to-OrderStatus" style="stroke:#5A5A5A;stroke-width:1;"/><polygon fill="#5A5A5A" points="475.38,757.08,466.38,753.08,470.38,757.08,466.38,761.08,475.38,757.08" style="stroke:#5A5A5A;stroke-width:1;"/><text fill="#000000" font-family="sans-serif" font-size="13" lengthAdjust="spacing" textLength="29.7832" x="374.34" y="770.1469">uses</text></g><?plantuml-src fLNDRjim3BxxAOJqqAHjYgL3WIxe2gJvsGoaQP1WssKNLMOJ8RRaINABR1YmqnvWs9li4VOcVP9HyaySnq4BBEr1fiYFv4TIF2Hld_bvXsHk95kDGlb8scGW8ye5kP41XEJX36-V1GZXtX0ZYUABfI41Ly0CbyBJAovYgcX4GYx0h6CWKfcbB5sma6fDldc4N5EsMYYPYA0lGwd8foKtOELI1Q1IsS5vp_wXjAUKVAmAHrAO2Oq0RpaDCy6SVmNIUUrzBta5aKIrJWz6ez75i5DrEthJkpWxVzw3vu1lhUNSK9EacKs7au4_UOUd_kravCzkXWCypz_xqwax3OPZ_-DmvixztgG_78_nZ6Y7vEdt3_mdSmm3WoOQDF_xHvoGoIs9GMck3LZvzI3Jz58--rGPtq14BY_HH6CjhgvSACU4YmSGHggr7v0k6KknSE9OoI1XQMvTx0V5iuj4S3DLd5dnG2Pt8JZnbuGAmyqQfRumi03bn3gvCzBGiDdQg6CYQLJJr4SUo9P_iUCu0CqKZsqZRL_4kz7eLRAjmoEwgE0n1TH0q3FM54-RkFhujK16_ZUmYjC2_uC6LOiDE6bX9JaqUCJMsvQ2e9Wgogwb386A3VOClryGTw7lUhFMmFMx9IRdnn6RTd6ttDFkmbMvfiPEpxLUdOyzNLFJOmKWFaqANbWP6WGAsxt2w5AAEYQcT1tX9DH2Hu2lLAK6DC9dmbJwBgSdhqjQGWTSfdAJJHB78TzJWTs46Bukb1bVtCkQ3FnybElhATvJ4LIOHdf0FK1LdCJ1pcmSlcHnp22aTX3qaiVw9IQeqzEISShG2ZJHF8f3q5unWurNfwT73T9kvwVirV3S5DdVZeQT0QzWTYy0kdOOwwodbXW3pGQYIREWy7LjPQuQdOPrXq0vajFrKkjzj-WbXNpw-Qiq3KqcerXgpjBtcr7DQ419RpnkUQc-1JooKNSsQDQqG7Gu5dLJztBO9qGB6kkbn0qC-4W2CfnXEyiIB-YfmDWEE1-ARJus0MQiuYdJjEQRUB2W7DjAQM3ED6FwkAX1-atAM4VbOF8LiUyUlHMxJS4zA12sY2L6j5sLsPviUONowUbLIQjR68F-B9hPZiIH2TSjBqkttRxQskHTag3UFm00?></g></svg>