<svg xmlns="http://www.w3.org/2000/svg" xmlns:xlink="http://www.w3.org/1999/xlink" contentStyleType="text/css" data-diagram-type="CLASS" height="963px" preserveAspectRatio="none" style="width:1314px;height:963px;background:#FFFFFF;" version="1.1" viewBox="0 0 1314 963" width="1314px" zoomAndPan="magnify"><?plantuml 1.2026.3beta6?><defs/><g><!--class OrderStatus--><g class="entity" data-qualified-name="OrderStatus" data-source-line="17" id="ent0002"><rect fill="#FFFFFF" height="129.4844" rx="2.5" ry="2.5" style="stroke:#5A5A5A;stroke-width:0.5;" width="110.5967" x="600.07" y="70.86"/><ellipse cx="615.07" cy="86.86" fill="#EB937F" rx="11" ry="11" style="stroke:#181818;stroke-width:1;"/><path d="M619.1794,92.86 L611.4606,92.86 L611.4606,80.4694 L619.1794,80.4694 L619.1794,82.6256 L613.9138,82.6256 L613.9138,85.2975 L618.6794,85.2975 L618.6794,87.4538 L613.9138,87.4538 L613.9138,90.7038 L619.1794,90.7038 L619.1794,92.86 Z " fill="#000000"/><text fill="#000000" font-family="Arial" font-size="13" lengthAdjust="spacing" textLength="78.5967" x="629.07" y="91.3605">OrderStatus</text><line style="stroke:#5A5A5A;stroke-width:0.5;" x1="601.07" x2="709.6667" y1="102.86" y2="102.86"/><text fill="#000000" font-family="sans-serif" font-size="14" lengthAdjust="spacing" textLength="63.9912" x="606.07" y="119.8551">PENDING</text><text fill="#000000" font-family="sans-serif" font-size="14" lengthAdjust="spacing" textLength="84.8818" x="606.07" y="136.152">CONFIRMED</text><text fill="#000000" font-family="sans-serif" font-size="14" lengthAdjust="spacing" textLength="60.0537" x="606.07" y="152.4489">SHIPPED</text><text fill="#000000" font-family="sans-serif" font-size="14" lengthAdjust="spacing" textLength="79.3311" x="606.07" y="168.7457">DELIVERED</text><text fill="#000000" font-family="sans-serif" font-size="14" lengthAdjust="spacing" textLength="83.6719" x="606.07" y="185.0426">CANCELLED</text><line style="stroke:#5A5A5A;stroke-width:0.5;" x1="601.07" x2="709.6667" y1="192.3444" y2="192.3444"/></g><!--class CartItem--><g class="entity" data-qualified-name="CartItem" data-source-line="26" id="ent0003"><rect fill="#FFFFFF" height="136.5859" rx="2.5" ry="2.5" style="stroke:#5A5A5A;stroke-width:0.5;" width="176.8555" x="566.94" y="367.3"/><ellipse cx="622.5787" cy="386.8508" fill="#ADD1B2" rx="11" ry="11" style="stroke:#181818;stroke-width:1;"/><path d="M625.5474,392.4914 Q624.9693,392.7883 624.3287,392.9289 Q623.688,393.0852 622.9849,393.0852 Q620.4849,393.0852 619.1568,391.4445 Q617.8443,389.7883 617.8443,386.6633 Q617.8443,383.5383 619.1568,381.882 Q620.4849,380.2258 622.9849,380.2258 Q623.688,380.2258 624.3287,380.382 Q624.9849,380.5383 625.5474,380.8352 L625.5474,383.5539 Q624.9224,382.9758 624.3287,382.7102 Q623.7349,382.4289 623.1099,382.4289 Q621.7662,382.4289 621.0787,383.507 Q620.3912,384.5695 620.3912,386.6633 Q620.3912,388.757 621.0787,389.8352 Q621.7662,390.8977 623.1099,390.8977 Q623.7349,390.8977 624.3287,390.632 Q624.9224,390.3508 625.5474,389.7727 L625.5474,392.4914 Z " fill="#000000"/><text fill="#000000" font-family="sans-serif" font-size="12" font-style="italic" lengthAdjust="spacing" textLength="59.1035" x="642.066" y="383.4387">&#171;session&#187;</text><text fill="#000000" font-family="Arial" font-size="13" lengthAdjust="spacing" textLength="57.0781" x="643.0787" y="398.3356">CartItem</text><line style="stroke:#5A5A5A;stroke-width:0.5;" x1="567.94" x2="742.7955" y1="406.4016" y2="406.4016"/><g data-visibility-modifier="PUBLIC_FIELD"><ellipse cx="577.94" cy="420.05" fill="none" rx="3" ry="3" style="stroke:#038048;stroke-width:1;"/></g><text fill="#000000" font-family="sans-serif" font-size="14" lengthAdjust="spacing" textLength="114.9121" x="586.94" y="423.3967">productId : Long</text><g data-visibility-modifier="PUBLIC_FIELD"><ellipse cx="577.94" cy="436.3469" fill="none" rx="3" ry="3" style="stroke:#038048;stroke-width:1;"/></g><text fill="#000000" font-family="sans-serif" font-size="14" lengthAdjust="spacing" textLength="150.8555" x="586.94" y="439.6936">productName : String</text><g data-visibility-modifier="PUBLIC_FIELD"><ellipse cx="577.94" cy="452.6438" fill="none" rx="3" ry="3" style="stroke:#038048;stroke-width:1;"/></g><text fill="#000000" font-family="sans-serif" font-size="14" lengthAdjust="spacing" textLength="124.749" x="586.94" y="455.9904">unitPrice : Double</text><g data-visibility-modifier="PUBLIC_FIELD"><ellipse cx="577.94" cy="468.9406" fill="none" rx="3" ry="3" style="stroke:#038048;stroke-width:1;"/></g><text fill="#000000" font-family="sans-serif" font-size="14" lengthAdjust="spacing" textLength="122.3428" x="586.94" y="472.2873">quantity : Integer</text><line style="stroke:#5A5A5A;stroke-width:0.5;" x1="567.94" x2="742.7955" y1="479.5891" y2="479.5891"/><g data-visibility-modifier="PUBLIC_METHOD"><ellipse cx="577.94" cy="493.2375" fill="#84BE84" rx="3" ry="3" style="stroke:#038048;stroke-width:1;"/></g><text fill="#000000" font-family="sans-serif" font-size="14" lengthAdjust="spacing" textLength="131.2158" x="586.94" y="496.5842">subtotal() : Double</text></g><!--class Product--><g class="entity" data-qualified-name="Product" data-source-line="34" id="ent0004"><rect fill="#FFFFFF" height="162.0781" rx="2.5" ry="2.5" style="stroke:#5A5A5A;stroke-width:0.5;" width="159.2393" x="928.34" y="354.56"/><ellipse cx="978.7729" cy="370.56" fill="#ADD1B2" rx="11" ry="11" style="stroke:#181818;stroke-width:1;"/><path d="M981.7416,376.2006 Q981.1635,376.4975 980.5229,376.6381 Q979.8822,376.7944 979.1791,376.7944 Q976.6791,376.7944 975.351,375.1538 Q974.0385,373.4975 974.0385,370.3725 Q974.0385,367.2475 975.351,365.5913 Q976.6791,363.935 979.1791,363.935 Q979.8822,363.935 980.5229,364.0913 Q981.1791,364.2475 981.7416,364.5444 L981.7416,367.2631 Q981.1166,366.685 980.5229,366.4194 Q979.9291,366.1381 979.3041,366.1381 Q977.9604,366.1381 977.2729,367.2163 Q976.5854,368.2788 976.5854,370.3725 Q976.5854,372.4663 977.2729,373.5444 Q977.9604,374.6069 979.3041,374.6069 Q979.9291,374.6069 980.5229,374.3413 Q981.1166,374.06 981.7416,373.4819 L981.7416,376.2006 Z " fill="#000000"/><text fill="#000000" font-family="Arial" font-size="13" lengthAdjust="spacing" textLength="49.8735" x="999.2729" y="375.0605">Product</text><line style="stroke:#5A5A5A;stroke-width:0.5;" x1="929.34" x2="1086.5793" y1="386.56" y2="386.56"/><g data-visibility-modifier="PUBLIC_FIELD"><ellipse cx="939.34" cy="400.2084" fill="none" rx="3" ry="3" style="stroke:#038048;stroke-width:1;"/></g><text fill="#000000" font-family="sans-serif" font-size="14" lengthAdjust="spacing" textLength="60.5186" x="948.34" y="403.5551">id : Long</text><g data-visibility-modifier="PUBLIC_FIELD"><ellipse cx="939.34" cy="416.5053" fill="none" rx="3" ry="3" style="stroke:#038048;stroke-width:1;"/></g><text fill="#000000" font-family="sans-serif" font-size="14" lengthAdjust="spacing" textLength="95.1016" x="948.34" y="419.852">name : String</text><g data-visibility-modifier="PUBLIC_FIELD"><ellipse cx="939.34" cy="432.8022" fill="none" rx="3" ry="3" style="stroke:#038048;stroke-width:1;"/></g><text fill="#000000" font-family="sans-serif" font-size="14" lengthAdjust="spacing" textLength="133.2393" x="948.34" y="436.1489">description : String</text><g data-visibility-modifier="PUBLIC_FIELD"><ellipse cx="939.34" cy="449.0991" fill="none" rx="3" ry="3" style="stroke:#038048;stroke-width:1;"/></g><text fill="#000000" font-family="sans-serif" font-size="14" lengthAdjust="spacing" textLength="98.0684" x="948.34" y="452.4457">price : Double</text><g data-visibility-modifier="PUBLIC_FIELD"><ellipse cx="939.34" cy="465.3959" fill="none" rx="3" ry="3" style="stroke:#038048;stroke-width:1;"/></g><text fill="#000000" font-family="sans-serif" font-size="14" lengthAdjust="spacing" textLength="79.6729" x="948.34" y="468.7426">sku : String</text><g data-visibility-modifier="PUBLIC_FIELD"><ellipse cx="939.34" cy="481.6928" fill="none" rx="3" ry="3" style="stroke:#038048;stroke-width:1;"/></g><text fill="#000000" font-family="sans-serif" font-size="14" lengthAdjust="spacing" textLength="99.0049" x="948.34" y="485.0395">image : String</text><g data-visibility-modifier="PUBLIC_FIELD"><ellipse cx="939.34" cy="497.9897" fill="none" rx="3" ry="3" style="stroke:#038048;stroke-width:1;"/></g><text fill="#000000" font-family="sans-serif" font-size="14" lengthAdjust="spacing" textLength="115.7803" x="948.34" y="501.3364">createdAt : Date</text><line style="stroke:#5A5A5A;stroke-width:0.5;" x1="929.34" x2="1086.5793" y1="508.6381" y2="508.6381"/></g><!--class Category--><g class="entity" data-qualified-name="Category" data-source-line="44" id="ent0005"><rect fill="#FFFFFF" height="113.1875" rx="2.5" ry="2.5" style="stroke:#5A5A5A;stroke-width:0.5;" width="159.2393" x="575.74" y="539"/><ellipse cx="621.4185" cy="555" fill="#ADD1B2" rx="11" ry="11" style="stroke:#181818;stroke-width:1;"/><path d="M624.3872,560.6406 Q623.8091,560.9375 623.1685,561.0781 Q622.5278,561.2344 621.8247,561.2344 Q619.3247,561.2344 617.9966,559.5938 Q616.6841,557.9375 616.6841,554.8125 Q616.6841,551.6875 617.9966,550.0313 Q619.3247,548.375 621.8247,548.375 Q622.5278,548.375 623.1685,548.5313 Q623.8247,548.6875 624.3872,548.9844 L624.3872,551.7031 Q623.7622,551.125 623.1685,550.8594 Q622.5747,550.5781 621.9497,550.5781 Q620.606,550.5781 619.9185,551.6563 Q619.231,552.7188 619.231,554.8125 Q619.231,556.9063 619.9185,557.9844 Q620.606,559.0469 621.9497,559.0469 Q622.5747,559.0469 623.1685,558.7813 Q623.7622,558.5 624.3872,557.9219 L624.3872,560.6406 Z " fill="#000000"/><text fill="#000000" font-family="Arial" font-size="13" lengthAdjust="spacing" textLength="59.3823" x="641.9185" y="559.5005">Category</text><line style="stroke:#5A5A5A;stroke-width:0.5;" x1="576.74" x2="733.9793" y1="571" y2="571"/><g data-visibility-modifier="PUBLIC_FIELD"><ellipse cx="586.74" cy="584.6484" fill="none" rx="3" ry="3" style="stroke:#038048;stroke-width:1;"/></g><text fill="#000000" font-family="sans-serif" font-size="14" lengthAdjust="spacing" textLength="60.5186" x="595.74" y="587.9951">id : Long</text><g data-visibility-modifier="PUBLIC_FIELD"><ellipse cx="586.74" cy="600.9453" fill="none" rx="3" ry="3" style="stroke:#038048;stroke-width:1;"/></g><text fill="#000000" font-family="sans-serif" font-size="14" lengthAdjust="spacing" textLength="95.1016" x="595.74" y="604.292">name : String</text><g data-visibility-modifier="PUBLIC_FIELD"><ellipse cx="586.74" cy="617.2422" fill="none" rx="3" ry="3" style="stroke:#038048;stroke-width:1;"/></g><text fill="#000000" font-family="sans-serif" font-size="14" lengthAdjust="spacing" textLength="133.2393" x="595.74" y="620.5889">description : String</text><g data-visibility-modifier="PUBLIC_FIELD"><ellipse cx="586.74" cy="633.5391" fill="none" rx="3" ry="3" style="stroke:#038048;stroke-width:1;"/></g><text fill="#000000" font-family="sans-serif" font-size="14" lengthAdjust="spacing" textLength="99.0049" x="595.74" y="636.8857">image : String</text><line style="stroke:#5A5A5A;stroke-width:0.5;" x1="576.74" x2="733.9793" y1="644.1875" y2="644.1875"/></g><!--class User--><g class="entity" data-qualified-name="User" data-source-line="51" id="ent0006"><rect fill="#FFFFFF" height="113.1875" rx="2.5" ry="2.5" style="stroke:#5A5A5A;stroke-width:0.5;" width="148.1104" x="7" y="247"/><ellipse cx="61.9897" cy="263" fill="#ADD1B2" rx="11" ry="11" style="stroke:#181818;stroke-width:1;"/><path d="M64.9585,268.6406 Q64.3804,268.9375 63.7397,269.0781 Q63.0991,269.2344 62.396,269.2344 Q59.896,269.2344 58.5679,267.5938 Q57.2554,265.9375 57.2554,262.8125 Q57.2554,259.6875 58.5679,258.0313 Q59.896,256.375 62.396,256.375 Q63.0991,256.375 63.7397,256.5313 Q64.396,256.6875 64.9585,256.9844 L64.9585,259.7031 Q64.3335,259.125 63.7397,258.8594 Q63.146,258.5781 62.521,258.5781 Q61.1772,258.5781 60.4897,259.6563 Q59.8022,260.7188 59.8022,262.8125 Q59.8022,264.9063 60.4897,265.9844 Q61.1772,267.0469 62.521,267.0469 Q63.146,267.0469 63.7397,266.7813 Q64.3335,266.5 64.9585,265.9219 L64.9585,268.6406 Z " fill="#000000"/><text fill="#000000" font-family="Arial" font-size="13" lengthAdjust="spacing" textLength="29.6309" x="82.4897" y="267.5005">User</text><line style="stroke:#5A5A5A;stroke-width:0.5;" x1="8" x2="154.1104" y1="279" y2="279"/><g data-visibility-modifier="PUBLIC_FIELD"><ellipse cx="18" cy="292.6484" fill="none" rx="3" ry="3" style="stroke:#038048;stroke-width:1;"/></g><text fill="#000000" font-family="sans-serif" font-size="14" lengthAdjust="spacing" textLength="60.5186" x="27" y="295.9951">id : Long</text><g data-visibility-modifier="PUBLIC_FIELD"><ellipse cx="18" cy="308.9453" fill="none" rx="3" ry="3" style="stroke:#038048;stroke-width:1;"/></g><text fill="#000000" font-family="sans-serif" font-size="14" lengthAdjust="spacing" textLength="94.0078" x="27" y="312.292">email : String</text><g data-visibility-modifier="PUBLIC_FIELD"><ellipse cx="18" cy="325.2422" fill="none" rx="3" ry="3" style="stroke:#038048;stroke-width:1;"/></g><text fill="#000000" font-family="sans-serif" font-size="14" lengthAdjust="spacing" textLength="122.1104" x="27" y="328.5889">password : String</text><g data-visibility-modifier="PUBLIC_FIELD"><ellipse cx="18" cy="341.5391" fill="none" rx="3" ry="3" style="stroke:#038048;stroke-width:1;"/></g><text fill="#000000" font-family="sans-serif" font-size="14" lengthAdjust="spacing" textLength="117.7627" x="27" y="344.8857">enable : Boolean</text><line style="stroke:#5A5A5A;stroke-width:0.5;" x1="8" x2="154.1104" y1="352.1875" y2="352.1875"/></g><!--class Role--><g class="entity" data-qualified-name="Role" data-source-line="58" id="ent0007"><rect fill="#FFFFFF" height="80.5938" rx="2.5" ry="2.5" style="stroke:#5A5A5A;stroke-width:0.5;" width="121.1016" x="238.2" y="329.3"/><ellipse cx="280.4274" cy="345.3" fill="#ADD1B2" rx="11" ry="11" style="stroke:#181818;stroke-width:1;"/><path d="M283.3962,350.9406 Q282.818,351.2375 282.1774,351.3781 Q281.5368,351.5344 280.8337,351.5344 Q278.3337,351.5344 277.0055,349.8938 Q275.693,348.2375 275.693,345.1125 Q275.693,341.9875 277.0055,340.3313 Q278.3337,338.675 280.8337,338.675 Q281.5368,338.675 282.1774,338.8313 Q282.8337,338.9875 283.3962,339.2844 L283.3962,342.0031 Q282.7712,341.425 282.1774,341.1594 Q281.5837,340.8781 280.9587,340.8781 Q279.6149,340.8781 278.9274,341.9563 Q278.2399,343.0188 278.2399,345.1125 Q278.2399,347.2063 278.9274,348.2844 Q279.6149,349.3469 280.9587,349.3469 Q281.5837,349.3469 282.1774,349.0813 Q282.7712,348.8 283.3962,348.2219 L283.3962,350.9406 Z " fill="#000000"/><text fill="#000000" font-family="Arial" font-size="13" lengthAdjust="spacing" textLength="28.5962" x="300.478" y="349.8005">Role</text><line style="stroke:#5A5A5A;stroke-width:0.5;" x1="239.2" x2="358.3016" y1="361.3" y2="361.3"/><g data-visibility-modifier="PUBLIC_FIELD"><ellipse cx="249.2" cy="374.9484" fill="none" rx="3" ry="3" style="stroke:#038048;stroke-width:1;"/></g><text fill="#000000" font-family="sans-serif" font-size="14" lengthAdjust="spacing" textLength="60.5186" x="258.2" y="378.2951">id : Long</text><g data-visibility-modifier="PUBLIC_FIELD"><ellipse cx="249.2" cy="391.2453" fill="none" rx="3" ry="3" style="stroke:#038048;stroke-width:1;"/></g><text fill="#000000" font-family="sans-serif" font-size="14" lengthAdjust="spacing" textLength="95.1016" x="258.2" y="394.592">name : String</text><line style="stroke:#5A5A5A;stroke-width:0.5;" x1="239.2" x2="358.3016" y1="401.8938" y2="401.8938"/></g><!--class Order--><g class="entity" data-qualified-name="Order" data-source-line="63" id="ent0008"><rect fill="#FFFFFF" height="113.1875" rx="2.5" ry="2.5" style="stroke:#5A5A5A;stroke-width:0.5;" width="167.2783" x="215.11" y="181"/><ellipse cx="275.9132" cy="197" fill="#ADD1B2" rx="11" ry="11" style="stroke:#181818;stroke-width:1;"/><path d="M278.882,202.6406 Q278.3038,202.9375 277.6632,203.0781 Q277.0226,203.2344 276.3195,203.2344 Q273.8195,203.2344 272.4913,201.5938 Q271.1788,199.9375 271.1788,196.8125 Q271.1788,193.6875 272.4913,192.0313 Q273.8195,190.375 276.3195,190.375 Q277.0226,190.375 277.6632,190.5313 Q278.3195,190.6875 278.882,190.9844 L278.882,193.7031 Q278.257,193.125 277.6632,192.8594 Q277.0695,192.5781 276.4445,192.5781 Q275.1007,192.5781 274.4132,193.6563 Q273.7257,194.7188 273.7257,196.8125 Q273.7257,198.9063 274.4132,199.9844 Q275.1007,201.0469 276.4445,201.0469 Q277.0695,201.0469 277.6632,200.7813 Q278.257,200.5 278.882,199.9219 L278.882,202.6406 Z " fill="#000000"/><text fill="#000000" font-family="Arial" font-size="13" lengthAdjust="spacing" textLength="37.1719" x="296.4132" y="201.5005">Order</text><line style="stroke:#5A5A5A;stroke-width:0.5;" x1="216.11" x2="381.3883" y1="213" y2="213"/><g data-visibility-modifier="PUBLIC_FIELD"><ellipse cx="226.11" cy="226.6484" fill="none" rx="3" ry="3" style="stroke:#038048;stroke-width:1;"/></g><text fill="#000000" font-family="sans-serif" font-size="14" lengthAdjust="spacing" textLength="60.5186" x="235.11" y="229.9951">id : Long</text><g data-visibility-modifier="PUBLIC_FIELD"><ellipse cx="226.11" cy="242.9453" fill="none" rx="3" ry="3" style="stroke:#038048;stroke-width:1;"/></g><text fill="#000000" font-family="sans-serif" font-size="14" lengthAdjust="spacing" textLength="118.1182" x="235.11" y="246.292">orderDate : Date</text><g data-visibility-modifier="PUBLIC_FIELD"><ellipse cx="226.11" cy="259.2422" fill="none" rx="3" ry="3" style="stroke:#038048;stroke-width:1;"/></g><text fill="#000000" font-family="sans-serif" font-size="14" lengthAdjust="spacing" textLength="141.2783" x="235.11" y="262.5889">status : OrderStatus</text><g data-visibility-modifier="PUBLIC_FIELD"><ellipse cx="226.11" cy="275.5391" fill="none" rx="3" ry="3" style="stroke:#038048;stroke-width:1;"/></g><text fill="#000000" font-family="sans-serif" font-size="14" lengthAdjust="spacing" textLength="95.2383" x="235.11" y="278.8857">total : Double</text><line style="stroke:#5A5A5A;stroke-width:0.5;" x1="216.11" x2="381.3883" y1="286.1875" y2="286.1875"/></g><!--class OrderItem--><g class="entity" data-qualified-name="OrderItem" data-source-line="70" id="ent0009"><rect fill="#FFFFFF" height="96.8906" rx="2.5" ry="2.5" style="stroke:#5A5A5A;stroke-width:0.5;" width="425.9502" x="442.39" y="235.15"/><ellipse cx="617.7328" cy="251.15" fill="#ADD1B2" rx="11" ry="11" style="stroke:#181818;stroke-width:1;"/><path d="M620.7015,256.7906 Q620.1234,257.0875 619.4828,257.2281 Q618.8421,257.3844 618.139,257.3844 Q615.639,257.3844 614.3109,255.7437 Q612.9984,254.0875 612.9984,250.9625 Q612.9984,247.8375 614.3109,246.1812 Q615.639,244.525 618.139,244.525 Q618.8421,244.525 619.4828,244.6812 Q620.139,244.8375 620.7015,245.1344 L620.7015,247.8531 Q620.0765,247.275 619.4828,247.0094 Q618.889,246.7281 618.264,246.7281 Q616.9203,246.7281 616.2328,247.8062 Q615.5453,248.8687 615.5453,250.9625 Q615.5453,253.0562 616.2328,254.1344 Q616.9203,255.1969 618.264,255.1969 Q618.889,255.1969 619.4828,254.9312 Q620.0765,254.65 620.7015,254.0719 L620.7015,256.7906 Z " fill="#000000"/><text fill="#000000" font-family="Arial" font-size="13" lengthAdjust="spacing" textLength="66.7646" x="638.2328" y="255.6505">OrderItem</text><line style="stroke:#5A5A5A;stroke-width:0.5;" x1="443.39" x2="867.3402" y1="267.15" y2="267.15"/><g data-visibility-modifier="PUBLIC_FIELD"><ellipse cx="453.39" cy="280.7984" fill="none" rx="3" ry="3" style="stroke:#038048;stroke-width:1;"/></g><text fill="#000000" font-family="sans-serif" font-size="14" lengthAdjust="spacing" textLength="60.5186" x="462.39" y="284.1451">id : Long</text><g data-visibility-modifier="PUBLIC_FIELD"><ellipse cx="453.39" cy="297.0953" fill="none" rx="3" ry="3" style="stroke:#038048;stroke-width:1;"/></g><text fill="#000000" font-family="sans-serif" font-size="14" lengthAdjust="spacing" textLength="122.3428" x="462.39" y="300.442">quantity : Integer</text><g data-visibility-modifier="PUBLIC_FIELD"><ellipse cx="453.39" cy="313.3922" fill="none" rx="3" ry="3" style="stroke:#038048;stroke-width:1;"/></g><text fill="#000000" font-family="sans-serif" font-size="14" lengthAdjust="spacing" textLength="399.9502" x="462.39" y="316.7389">unitPrice : Double   ' snapshot price at purshase moment</text><line style="stroke:#5A5A5A;stroke-width:0.5;" x1="443.39" x2="867.3402" y1="324.0406" y2="324.0406"/></g><!--class Store--><g class="entity" data-qualified-name="Store" data-source-line="76" id="ent0010"><rect fill="#FFFFFF" height="113.1875" rx="2.5" ry="2.5" style="stroke:#5A5A5A;stroke-width:0.5;" width="136.708" x="12.7" y="7"/><ellipse cx="59.4813" cy="23" fill="#ADD1B2" rx="11" ry="11" style="stroke:#181818;stroke-width:1;"/><path d="M62.45,28.6406 Q61.8719,28.9375 61.2313,29.0781 Q60.5906,29.2344 59.8875,29.2344 Q57.3875,29.2344 56.0594,27.5938 Q54.7469,25.9375 54.7469,22.8125 Q54.7469,19.6875 56.0594,18.0313 Q57.3875,16.375 59.8875,16.375 Q60.5906,16.375 61.2313,16.5313 Q61.8875,16.6875 62.45,16.9844 L62.45,19.7031 Q61.825,19.125 61.2313,18.8594 Q60.6375,18.5781 60.0125,18.5781 Q58.6688,18.5781 57.9813,19.6563 Q57.2938,20.7188 57.2938,22.8125 Q57.2938,24.9063 57.9813,25.9844 Q58.6688,27.0469 60.0125,27.0469 Q60.6375,27.0469 61.2313,26.7813 Q61.825,26.5 62.45,25.9219 L62.45,28.6406 Z " fill="#000000"/><text fill="#000000" font-family="Arial" font-size="13" lengthAdjust="spacing" textLength="34.6455" x="79.9813" y="27.5005">Store</text><line style="stroke:#5A5A5A;stroke-width:0.5;" x1="13.7" x2="148.408" y1="39" y2="39"/><g data-visibility-modifier="PUBLIC_FIELD"><ellipse cx="23.7" cy="52.6484" fill="none" rx="3" ry="3" style="stroke:#038048;stroke-width:1;"/></g><text fill="#000000" font-family="sans-serif" font-size="14" lengthAdjust="spacing" textLength="60.5186" x="32.7" y="55.9951">id : Long</text><g data-visibility-modifier="PUBLIC_FIELD"><ellipse cx="23.7" cy="68.9453" fill="none" rx="3" ry="3" style="stroke:#038048;stroke-width:1;"/></g><text fill="#000000" font-family="sans-serif" font-size="14" lengthAdjust="spacing" textLength="95.1016" x="32.7" y="72.292">name : String</text><g data-visibility-modifier="PUBLIC_FIELD"><ellipse cx="23.7" cy="85.2422" fill="none" rx="3" ry="3" style="stroke:#038048;stroke-width:1;"/></g><text fill="#000000" font-family="sans-serif" font-size="14" lengthAdjust="spacing" textLength="110.708" x="32.7" y="88.5889">address : String</text><g data-visibility-modifier="PUBLIC_FIELD"><ellipse cx="23.7" cy="101.5391" fill="none" rx="3" ry="3" style="stroke:#038048;stroke-width:1;"/></g><text fill="#000000" font-family="sans-serif" font-size="14" lengthAdjust="spacing" textLength="99.21" x="32.7" y="104.8857">phone : String</text><line style="stroke:#5A5A5A;stroke-width:0.5;" x1="13.7" x2="148.408" y1="112.1875" y2="112.1875"/></g><!--class Payment--><g class="entity" data-qualified-name="Payment" data-source-line="83" id="ent0011"><rect fill="#FFFFFF" height="129.4844" rx="2.5" ry="2.5" style="stroke:#5A5A5A;stroke-width:0.5;" width="168.9053" x="570.91" y="818.86"/><ellipse cx="622.3641" cy="834.86" fill="#ADD1B2" rx="11" ry="11" style="stroke:#181818;stroke-width:1;"/><path d="M625.3329,840.5006 Q624.7547,840.7975 624.1141,840.9381 Q623.4735,841.0944 622.7704,841.0944 Q620.2704,841.0944 618.9422,839.4538 Q617.6297,837.7975 617.6297,834.6725 Q617.6297,831.5475 618.9422,829.8913 Q620.2704,828.235 622.7704,828.235 Q623.4735,828.235 624.1141,828.3913 Q624.7704,828.5475 625.3329,828.8444 L625.3329,831.5631 Q624.7079,830.985 624.1141,830.7194 Q623.5204,830.4381 622.8954,830.4381 Q621.5516,830.4381 620.8641,831.5163 Q620.1766,832.5788 620.1766,834.6725 Q620.1766,836.7663 620.8641,837.8444 Q621.5516,838.9069 622.8954,838.9069 Q623.5204,838.9069 624.1141,838.6413 Q624.7079,838.36 625.3329,837.7819 L625.3329,840.5006 Z " fill="#000000"/><text fill="#000000" font-family="Arial" font-size="13" lengthAdjust="spacing" textLength="57.4971" x="642.8641" y="839.3605">Payment</text><line style="stroke:#5A5A5A;stroke-width:0.5;" x1="571.91" x2="738.8153" y1="850.86" y2="850.86"/><g data-visibility-modifier="PUBLIC_FIELD"><ellipse cx="581.91" cy="864.5084" fill="none" rx="3" ry="3" style="stroke:#038048;stroke-width:1;"/></g><text fill="#000000" font-family="sans-serif" font-size="14" lengthAdjust="spacing" textLength="60.5186" x="590.91" y="867.8551">id : Long</text><g data-visibility-modifier="PUBLIC_FIELD"><ellipse cx="581.91" cy="880.8053" fill="none" rx="3" ry="3" style="stroke:#038048;stroke-width:1;"/></g><text fill="#000000" font-family="sans-serif" font-size="14" lengthAdjust="spacing" textLength="109.4639" x="590.91" y="884.152">method : String</text><g data-visibility-modifier="PUBLIC_FIELD"><ellipse cx="581.91" cy="897.1022" fill="none" rx="3" ry="3" style="stroke:#038048;stroke-width:1;"/></g><text fill="#000000" font-family="sans-serif" font-size="14" lengthAdjust="spacing" textLength="117.2432" x="590.91" y="900.4489">amount : Double</text><g data-visibility-modifier="PUBLIC_FIELD"><ellipse cx="581.91" cy="913.3991" fill="none" rx="3" ry="3" style="stroke:#038048;stroke-width:1;"/></g><text fill="#000000" font-family="sans-serif" font-size="14" lengthAdjust="spacing" textLength="113.3262" x="590.91" y="916.7457">status : Boolean</text><g data-visibility-modifier="PUBLIC_FIELD"><ellipse cx="581.91" cy="929.6959" fill="none" rx="3" ry="3" style="stroke:#038048;stroke-width:1;"/></g><text fill="#000000" font-family="sans-serif" font-size="14" lengthAdjust="spacing" textLength="142.9053" x="590.91" y="933.0426">paymentDate : Date</text><line style="stroke:#5A5A5A;stroke-width:0.5;" x1="571.91" x2="738.8153" y1="940.3444" y2="940.3444"/></g><!--class Supplier--><g class="entity" data-qualified-name="Supplier" data-source-line="91" id="ent0012"><rect fill="#FFFFFF" height="96.8906" rx="2.5" ry="2.5" style="stroke:#5A5A5A;stroke-width:0.5;" width="160.2852" x="575.22" y="687.15"/><ellipse cx="624.3318" cy="703.15" fill="#ADD1B2" rx="11" ry="11" style="stroke:#181818;stroke-width:1;"/><path d="M627.3006,708.7906 Q626.7224,709.0875 626.0818,709.2281 Q625.4412,709.3844 624.7381,709.3844 Q622.2381,709.3844 620.9099,707.7438 Q619.5974,706.0875 619.5974,702.9625 Q619.5974,699.8375 620.9099,698.1813 Q622.2381,696.525 624.7381,696.525 Q625.4412,696.525 626.0818,696.6813 Q626.7381,696.8375 627.3006,697.1344 L627.3006,699.8531 Q626.6756,699.275 626.0818,699.0094 Q625.4881,698.7281 624.8631,698.7281 Q623.5193,698.7281 622.8318,699.8063 Q622.1443,700.8688 622.1443,702.9625 Q622.1443,705.0563 622.8318,706.1344 Q623.5193,707.1969 624.8631,707.1969 Q625.4881,707.1969 626.0818,706.9313 Q626.6756,706.65 627.3006,706.0719 L627.3006,708.7906 Z " fill="#000000"/><text fill="#000000" font-family="Arial" font-size="13" lengthAdjust="spacing" textLength="53.5615" x="644.8318" y="707.6505">Supplier</text><line style="stroke:#5A5A5A;stroke-width:0.5;" x1="576.22" x2="734.5052" y1="719.15" y2="719.15"/><g data-visibility-modifier="PUBLIC_FIELD"><ellipse cx="586.22" cy="732.7984" fill="none" rx="3" ry="3" style="stroke:#038048;stroke-width:1;"/></g><text fill="#000000" font-family="sans-serif" font-size="14" lengthAdjust="spacing" textLength="60.5186" x="595.22" y="736.1451">id : Long</text><g data-visibility-modifier="PUBLIC_FIELD"><ellipse cx="586.22" cy="749.0953" fill="none" rx="3" ry="3" style="stroke:#038048;stroke-width:1;"/></g><text fill="#000000" font-family="sans-serif" font-size="14" lengthAdjust="spacing" textLength="95.1016" x="595.22" y="752.442">name : String</text><g data-visibility-modifier="PUBLIC_FIELD"><ellipse cx="586.22" cy="765.3922" fill="none" rx="3" ry="3" style="stroke:#038048;stroke-width:1;"/></g><text fill="#000000" font-family="sans-serif" font-size="14" lengthAdjust="spacing" textLength="134.2852" x="595.22" y="768.7389">contactInfo : String</text><line style="stroke:#5A5A5A;stroke-width:0.5;" x1="576.22" x2="734.5052" y1="776.0406" y2="776.0406"/></g><!--class Inventory--><g class="entity" data-qualified-name="Inventory" data-source-line="97" id="ent0013"><rect fill="#FFFFFF" height="113.1875" rx="2.5" ry="2.5" style="stroke:#5A5A5A;stroke-width:0.5;" width="151.7949" x="1147.58" y="170"/><ellipse cx="1188.546" cy="186" fill="#ADD1B2" rx="11" ry="11" style="stroke:#181818;stroke-width:1;"/><path d="M1191.5147,191.6406 Q1190.9366,191.9375 1190.296,192.0781 Q1189.6553,192.2344 1188.9522,192.2344 Q1186.4522,192.2344 1185.1241,190.5938 Q1183.8116,188.9375 1183.8116,185.8125 Q1183.8116,182.6875 1185.1241,181.0313 Q1186.4522,179.375 1188.9522,179.375 Q1189.6553,179.375 1190.296,179.5313 Q1190.9522,179.6875 1191.5147,179.9844 L1191.5147,182.7031 Q1190.8897,182.125 1190.296,181.8594 Q1189.7022,181.5781 1189.0772,181.5781 Q1187.7335,181.5781 1187.046,182.6563 Q1186.3585,183.7188 1186.3585,185.8125 Q1186.3585,187.9063 1187.046,188.9844 Q1187.7335,190.0469 1189.0772,190.0469 Q1189.7022,190.0469 1190.296,189.7813 Q1190.8897,189.5 1191.5147,188.9219 L1191.5147,191.6406 Z " fill="#000000"/><text fill="#000000" font-family="Arial" font-size="13" lengthAdjust="spacing" textLength="62.0928" x="1208.3162" y="190.5005">Inventory</text><line style="stroke:#5A5A5A;stroke-width:0.5;" x1="1148.58" x2="1298.3749" y1="202" y2="202"/><g data-visibility-modifier="PUBLIC_FIELD"><ellipse cx="1158.58" cy="215.6484" fill="none" rx="3" ry="3" style="stroke:#038048;stroke-width:1;"/></g><text fill="#000000" font-family="sans-serif" font-size="14" lengthAdjust="spacing" textLength="60.5186" x="1167.58" y="218.9951">id : Long</text><g data-visibility-modifier="PUBLIC_FIELD"><ellipse cx="1158.58" cy="231.9453" fill="none" rx="3" ry="3" style="stroke:#038048;stroke-width:1;"/></g><text fill="#000000" font-family="sans-serif" font-size="14" lengthAdjust="spacing" textLength="118.2822" x="1167.58" y="235.292">onHand : Integer</text><g data-visibility-modifier="PUBLIC_FIELD"><ellipse cx="1158.58" cy="248.2422" fill="none" rx="3" ry="3" style="stroke:#038048;stroke-width:1;"/></g><text fill="#000000" font-family="sans-serif" font-size="14" lengthAdjust="spacing" textLength="125.7949" x="1167.58" y="251.5889">reserved : Integer</text><g data-visibility-modifier="PUBLIC_FIELD"><ellipse cx="1158.58" cy="264.5391" fill="none" rx="3" ry="3" style="stroke:#038048;stroke-width:1;"/></g><text fill="#000000" font-family="sans-serif" font-size="14" lengthAdjust="spacing" textLength="120.3604" x="1167.58" y="267.8857">updatedAt : Date</text><line style="stroke:#5A5A5A;stroke-width:0.5;" x1="1148.58" x2="1298.3749" y1="275.1875" y2="275.1875"/></g><!--link Category to Product--><g class="link" data-entity-1="ent0005" data-entity-2="ent0004" data-link-type="association" data-source-line="105" id="lnk14"><path codeLine="105" d="M655.37,538.68 C655.37,523.03 655.37,510.26 655.37,510.26 C655.37,510.26 823.92,510.26 927.95,510.26" fill="none" id="Category-Product" style="stroke:#5A5A5A;stroke-width:1;"/><text fill="#000000" font-family="sans-serif" font-size="13" lengthAdjust="spacing" textLength="23.0356" x="630.9719" y="527.9046">0..*</text><text fill="#000000" font-family="sans-serif" font-size="13" lengthAdjust="spacing" textLength="23.0356" x="897.3733" y="529.1363">0..*</text></g><!--link User to Role--><g class="link" data-entity-1="ent0006" data-entity-2="ent0007" data-link-type="association" data-source-line="106" id="lnk15"><path codeLine="106" d="M155.36,344.75 C182.22,344.75 212.2,344.75 237.77,344.75" fill="none" id="User-Role" style="stroke:#5A5A5A;stroke-width:1;"/><text fill="#000000" font-family="sans-serif" font-size="13" lengthAdjust="spacing" textLength="23.0356" x="163.0036" y="361.1563">0..*</text><text fill="#000000" font-family="sans-serif" font-size="13" lengthAdjust="spacing" textLength="23.0356" x="207.2973" y="355.0348">0..*</text></g><!--link User to Order--><g class="link" data-entity-1="ent0006" data-entity-2="ent0008" data-link-type="association" data-source-line="107" id="lnk16"><path codeLine="107" d="M155.36,270.6 C174.46,270.6 195.13,270.6 214.68,270.6" fill="none" id="User-Order" style="stroke:#5A5A5A;stroke-width:1;"/><text fill="#000000" font-family="sans-serif" font-size="13" lengthAdjust="spacing" textLength="8.271" x="163.0815" y="280.1639">1</text><text fill="#000000" font-family="sans-serif" font-size="13" lengthAdjust="spacing" textLength="23.0356" x="184.0658" y="285.9">0..*</text></g><!--link Store to Order--><g class="link" data-entity-1="ent0010" data-entity-2="ent0008" data-link-type="association" data-source-line="108" id="lnk17"><path codeLine="108" d="M81.37,120.46 C81.37,163.05 81.37,214 81.37,214 C81.37,214 153.54,214 214.71,214" fill="none" id="Store-Order" style="stroke:#5A5A5A;stroke-width:1;"/><text fill="#000000" font-family="sans-serif" font-size="13" lengthAdjust="spacing" textLength="8.271" x="72.9375" y="140.3796">1</text><text fill="#000000" font-family="sans-serif" font-size="13" lengthAdjust="spacing" textLength="23.0356" x="184.0981" y="224.7897">0..*</text></g><!--reverse link Order to OrderItem--><g class="link" data-entity-1="ent0008" data-entity-2="ent0009" data-link-type="composition" data-source-line="109" id="lnk18"><path codeLine="109" d="M394.81,264.67 C413.14,264.67 421.33,264.67 442.18,264.67" fill="none" id="Order-backto-OrderItem" style="stroke:#5A5A5A;stroke-width:1;"/><polygon fill="#5A5A5A" points="382.81,264.67,388.81,268.67,394.81,264.67,388.81,260.67,382.81,264.67" style="stroke:#5A5A5A;stroke-width:1;"/><text fill="#000000" font-family="sans-serif" font-size="13" lengthAdjust="spacing" textLength="8.271" x="390.3894" y="279.714">1</text><text fill="#000000" font-family="sans-serif" font-size="13" lengthAdjust="spacing" textLength="23.0356" x="411.106" y="276.3287">1..*</text></g><!--link OrderItem to Product--><g class="link" data-entity-1="ent0009" data-entity-2="ent0004" data-link-type="association" data-source-line="110" id="lnk19"><path codeLine="110" d="M806.37,332.14 C806.37,347.67 806.37,360.93 806.37,360.93 C806.37,360.93 871.72,360.93 928,360.93" fill="none" id="OrderItem-Product" style="stroke:#5A5A5A;stroke-width:1;"/><text fill="#000000" font-family="sans-serif" font-size="13" lengthAdjust="spacing" textLength="23.0356" x="802.9904" y="352.0975">0..*</text><text fill="#000000" font-family="sans-serif" font-size="13" lengthAdjust="spacing" textLength="8.271" x="912.0105" y="366.6012">1</text></g><!--link Order to Payment--><g class="link" data-entity-1="ent0008" data-entity-2="ent0011" data-link-type="association" data-source-line="111" id="lnk20"><path codeLine="111" d="M371.37,294.64 C371.37,452.51 371.37,883.6 371.37,883.6 C371.37,883.6 486.86,883.6 570.54,883.6" fill="none" id="Order-Payment" style="stroke:#5A5A5A;stroke-width:1;"/><text fill="#000000" font-family="sans-serif" font-size="13" lengthAdjust="spacing" textLength="8.271" x="371.32" y="314.1777">1</text><text fill="#000000" font-family="sans-serif" font-size="13" lengthAdjust="spacing" textLength="24.8066" x="538.254" y="896.3169">0..1</text></g><!--link Supplier to Product--><g class="link" data-entity-1="ent0012" data-entity-2="ent0004" data-link-type="association" data-source-line="112" id="lnk21"><path codeLine="112" d="M735.91,735.6 C840.1,735.6 1008.37,735.6 1008.37,735.6 C1008.37,735.6 1008.37,605.63 1008.37,516.78" fill="none" id="Supplier-Product" style="stroke:#5A5A5A;stroke-width:1;"/><text fill="#000000" font-family="sans-serif" font-size="13" lengthAdjust="spacing" textLength="23.0356" x="743.5342" y="748.2939">0..*</text><text fill="#000000" font-family="sans-serif" font-size="13" lengthAdjust="spacing" textLength="23.0356" x="984.3839" y="536.751">0..*</text></g><!--link Store to Inventory--><g class="link" data-entity-1="ent0010" data-entity-2="ent0013" data-link-type="association" data-source-line="113" id="lnk22"><path codeLine="113" d="M149.57,38.93 C396.24,38.93 1224.37,38.93 1224.37,38.93 C1224.37,38.93 1224.37,114.31 1224.37,169.53" fill="none" id="Store-Inventory" style="stroke:#5A5A5A;stroke-width:1;"/><text fill="#000000" font-family="sans-serif" font-size="13" lengthAdjust="spacing" textLength="8.271" x="157.5163" y="49.1269">1</text><text fill="#000000" font-family="sans-serif" font-size="13" lengthAdjust="spacing" textLength="23.0356" x="1200.0794" y="158.7363">0..*</text></g><!--link Product to Inventory--><g class="link" data-entity-1="ent0004" data-entity-2="ent0013" data-link-type="association" data-source-line="114" id="lnk23"><path codeLine="114" d="M1008.37,354.1 C1008.37,307.87 1008.37,259.17 1008.37,259.17 C1008.37,259.17 1085.46,259.17 1147.34,259.17" fill="none" id="Product-Inventory" style="stroke:#5A5A5A;stroke-width:1;"/><text fill="#000000" font-family="sans-serif" font-size="13" lengthAdjust="spacing" textLength="8.271" x="1000.0732" y="343.5242">1</text><text fill="#000000" font-family="sans-serif" font-size="13" lengthAdjust="spacing" textLength="23.0356" x="1116.5364" y="274.8121">0..*</text></g><!--link Order to OrderStatus--><g class="link" data-entity-1="ent0008" data-entity-2="ent0002" data-link-type="dependency" data-source-line="116" id="lnk24"><path codeLine="116" d="M382.81,190.67 C449.73,190.67 535.52,190.67 593.63,190.67" fill="none" id="Order-to-OrderStatus" style="stroke:#5A5A5A;stroke-width:1;"/><polygon fill="#5A5A5A" points="599.63,190.67,590.63,186.67,594.63,190.67,590.63,194.67,599.63,190.67" style="stroke:#5A5A5A;stroke-width:1;"/><text fill="#000000" font-family="sans-serif" font-size="13" lengthAdjust="spacing" textLength="29.7832" x="461.22" y="203.7369">uses</text></g><!--link CartItem to Product--><g class="link" data-entity-1="ent0003" data-entity-2="ent0004" data-link-type="dependency" data-source-line="119" id="lnk25"><path codeLine="119" d="M743.88,435.6 C800.39,435.6 867.05,435.6 921.84,435.6" fill="none" id="CartItem-to-Product" style="stroke:#5A5A5A;stroke-width:1;stroke-dasharray:7,7;"/><polygon fill="#5A5A5A" points="927.84,435.6,918.84,431.6,922.84,435.6,918.84,439.6,927.84,435.6" style="stroke:#5A5A5A;stroke-width:1;"/><text fill="#000000" font-family="sans-serif" font-size="13" lengthAdjust="spacing" textLength="79.752" x="755.86" y="448.6669">session only</text></g><?plantuml-src fLLhRjD04FxlKupQ7uNIH0HKgKHLf3GFQYcaKIBWzzQU9glQksOVhLA4n26u2KVW9fo4sRLZ9uu3bKWYPNPcTfxVp2PuPy18K7ovCX1pXP7XKWJwdekCAPP2mWMQTOOWbLd9BK6KCAtXQm1mnQBxfP9Mn0EPI0MVLzoWuqiLeyfvn-TzzoLkNodvM6UEfJ1JbY99EKiAne8_8NJU1j-slAAmQQFJu_5uV37grDsEt_Kltfp_sqFW3T-ucml3ZCqpcuscmt3wdgZ1pNGSpZ-CXaGlhiFPp5F3qIJyD9fxUj2V3aQJ2T5axGH-__XEFrXG61GqQDJyrqzn1jCRo51fhWqw_jMmq0poUWwOCg7152ulwOgcNlHwFfHNa2aPsyY4CNHX8iLoc-apwyB2A5u8hE1cfdZas4DfRnFqx2-M2SFDchYXCBX4vTdQtXffMFBYPQLEQUGnpN8VHHXynx_OSnoZZXJF78ns1Tb-DFhUxkhmb2rhzYA5p63SD-ugKLLS0pejfLh_Rs0rfwNzZnfLesrC6KzgoT65HmBUBXS5erI9ToLbWanKjkTqVaRSfRv7PkC5ZtPNc4rzV65p37Ut4Uq5liiDFVPw7dXDFWwWPXzZ0702Mh1ChwGfEiw8i4glc4P8POh2L6uNHYfyPlzO72iQYLhTLr8qrMl6rivJe-aKQPFLEiLIMYMcXivD4JVTonlj3MyNlCh6Pbd23_HfFw68DX2ZWHPtiY63K3oGdqFmbkAQYRZM3oeFgWUiisqMxqrGkQ3ccB28HWBrPX6LOtNqkjq-FO9MQqCLYo3mW-4-UneErblYpf7xgyGUPK7UzCFo7EkL_DGfT2e51zEW0cmLH7vX4sNTZ5SWNJeLw0ZAXXrCzN2iPN-2pNxycquHJQlLstbakc1fpRjsb8jVuHqg53GuXTqpkBNqDaiGRgJojqEtJuBoHhlTAtTq5ufdWn2IhFy0?></g></svg>